<?xml version="1.0" encoding="utf-8"?>
<!-- Generator: Adobe Illustrator 24.3.0, SVG Export Plug-In . SVG Version: 6.00 Build 0)  -->
<svg version="1.1" id="Capa_1" xmlns="http://www.w3.org/2000/svg" xmlns:xlink="http://www.w3.org/1999/xlink" x="0px" y="0px"
	 viewBox="0 0 368 368" style="enable-background:new 0 0 368 368;" xml:space="preserve">
<style type="text/css">
	.st0{fill:#FFFFFF;}
</style>
<g>
	<g>
		<path class="st0" d="M360,0H56H8C3.6,0,0,3.6,0,8v48v304c0,4.4,3.6,8,8,8h48c4.4,0,8-3.6,8-8v-8h232c2.1,0,4.2-0.8,5.7-2.3l48-48
			c1.5-1.5,2.3-3.5,2.3-5.7V64h8c4.4,0,8-3.6,8-8V8C368,3.6,364.4,0,360,0z M48,352H16V64h32V352z M48,48H16V16h32V48z M336,292.7
			L292.7,336H288v-48h48V292.7z M336,272h-56c-4.4,0-8,3.6-8,8v56H64V192h40c4.4,0,8-3.6,8-8s-3.6-8-8-8H64V64h112v40
			c0,4.4,3.6,8,8,8s8-3.6,8-8V64h144V272z M352,48H64V16h288V48z"/>
	</g>
</g>
<g>
	<g>
		<path class="st0" d="M184,144c-4.4,0-8,3.6-8,8v24h-24c-4.4,0-8,3.6-8,8s3.6,8,8,8h32c4.4,0,8-3.6,8-8v-32
			C192,147.6,188.4,144,184,144z"/>
	</g>
</g>
</svg>
