<?xml version="1.0" encoding="utf-8"?>
<!-- Generator: Adobe Illustrator 24.3.0, SVG Export Plug-In . SVG Version: 6.00 Build 0)  -->
<svg version="1.1" id="Capa_1" xmlns="http://www.w3.org/2000/svg" xmlns:xlink="http://www.w3.org/1999/xlink" x="0px" y="0px"
	 viewBox="0 0 512 512" style="enable-background:new 0 0 512 512;" xml:space="preserve">
<style type="text/css">
	.st0{fill:#FFFFFF;}
</style>
<g>
	<g>
		<path class="st0" d="M0.2,9.8C0.3,9.2,0.4,8.6,0.6,8c0.2-0.6,0.5-1.1,0.9-1.6c0.2-0.4,0.3-0.7,0.6-1c0.1-0.1,0.2-0.1,0.3-0.2
			c0.4-0.4,0.9-0.8,1.4-1.1c0.4-0.3,0.8-0.6,1.3-0.8c0.5-0.2,1-0.3,1.5-0.4C7,2.6,7.6,2.5,8.2,2.5c0.1,0,0.2-0.1,0.4-0.1
			c0.4,0,0.8,0.1,1.2,0.2c0.6,0.1,1.2,0.2,1.7,0.3C12,3.2,12.5,3.5,13,3.8c0.4,0.2,0.7,0.3,1,0.6l492.7,413.4l2.3,2
			c0.1,0.1,0.1,0.2,0.2,0.3c0.4,0.4,0.8,0.9,1.1,1.4c0.3,0.4,0.6,0.8,0.9,1.3c0.2,0.5,0.3,0.9,0.4,1.4c0.2,0.6,0.3,1.2,0.4,1.8
			c0,0.1,0.1,0.2,0.1,0.3v74.8c0,2.3-0.9,4.4-2.5,6c-1.6,1.6-3.8,2.5-6,2.5H8.5c-2.3,0-4.4-0.9-6-2.5c-1.6-1.6-2.5-3.8-2.5-6V10.9
			C0.1,10.5,0.1,10.2,0.2,9.8z M17.1,492.5h477.9v-25.6H17.1L17.1,492.5L17.1,492.5z M17.1,449.9H452l-20.3-17.1H17.1L17.1,449.9
			L17.1,449.9z M411.3,415.7L264.5,292.6v123.1H411.3z M247.5,415.7V278.3l-12.6-10.5l-4.5,4.5v143.5H247.5z M51.2,403.1v12.6h11.6
			l159-159l-13.1-11L51.2,403.1z M195.5,234.7L51.2,113.6V379L195.5,234.7z M86.9,415.7h126.4V289.3L86.9,415.7z M17.1,415.7h17.1
			V99.3L17.1,84.9V415.7z M17.1,62.7L262,268.2l0.1,0l178.7,149.9l0.1,0.1l37.7,31.6h16.4v-19.7L17.1,29.2V62.7z"/>
	</g>
</g>
</svg>
