<?xml version="1.0" encoding="utf-8"?>
<!-- Generator: Adobe Illustrator 24.3.0, SVG Export Plug-In . SVG Version: 6.00 Build 0)  -->
<svg version="1.1" id="Capa_1" xmlns="http://www.w3.org/2000/svg" xmlns:xlink="http://www.w3.org/1999/xlink" x="0px" y="0px"
	 viewBox="0 0 368.2 368.2" style="enable-background:new 0 0 368.2 368.2;" xml:space="preserve">
<style type="text/css">
	.st0{fill:#CACED6;stroke:#FFFFFF;stroke-width:2;stroke-miterlimit:10;}
</style>
<g>
	<g>
		<g>
			<path class="st0" d="M184.1,0c-75,0-136,61-136,136c0,24.7,11.1,51.2,11.5,52.4c3.6,8.5,10.6,21.7,15.7,29.4L168.6,359
				c3.8,5.8,9.5,9.1,15.5,9.1s11.7-3.3,15.5-9.1l93.3-141.3c5.1-7.7,12.1-20.9,15.7-29.4c0.5-1.1,11.5-27.7,11.5-52.4
				C320.1,61,259.1,0,184.1,0z M293.8,182.2c-3.2,7.6-9.8,19.9-14.3,26.8l-93.3,141.3c-1.8,2.8-2.4,2.8-4.3,0L88.7,209
				c-4.6-6.9-11.1-19.2-14.3-26.8c-0.1-0.3-10.3-24.8-10.3-46.1c0-66.2,53.8-120,120-120s120,53.8,120,120
				C304.1,157.4,293.9,181.9,293.8,182.2z"/>
			<path class="st0" d="M184.1,64c-39.7,0-72,32.3-72,72s32.3,72,72,72s72-32.3,72-72S223.8,64,184.1,64z M184.1,192
				c-30.9,0-56-25.1-56-56s25.1-56,56-56s56,25.1,56,56S215,192,184.1,192z"/>
		</g>
	</g>
</g>
</svg>
