<?xml version="1.0" encoding="utf-8"?>
<!-- Generator: Adobe Illustrator 24.3.0, SVG Export Plug-In . SVG Version: 6.00 Build 0)  -->
<svg version="1.1" id="Capa_1" xmlns="http://www.w3.org/2000/svg" xmlns:xlink="http://www.w3.org/1999/xlink" x="0px" y="0px"
	 viewBox="0 0 480 480" style="enable-background:new 0 0 480 480;" xml:space="preserve">
<style type="text/css">
	.st0{fill:#FFFFFF;}
</style>
<g>
	<g>
		<g>
			<rect x="288" y="92" class="st0" width="16" height="16"/>
			<rect x="320" y="92" class="st0" width="16" height="16"/>
			<rect x="352" y="92" class="st0" width="16" height="16"/>
			<rect x="288" y="124" class="st0" width="16" height="16"/>
			<rect x="320" y="124" class="st0" width="16" height="16"/>
			<rect x="352" y="124" class="st0" width="16" height="16"/>
			<path class="st0" d="M456,220h-8V36c0-4.4-3.6-8-8-8H328c-4.4,0-8,3.6-8,8v24h-32v16h80V60h-32V44h96v176H24
				c-13.2,0-24,10.7-24,23.9c0,10.2,6.4,19.2,16,22.6V332c0.1,33.6,23.3,62.7,56,70.1V444c0,4.4,3.6,8,8,8h32c4.4,0,8-3.6,8-8v-40
				h240v40c0,4.4,3.6,8,8,8h32c4.4,0,8-3.6,8-8v-41.9c32.7-7.5,55.9-36.6,56-70.1v-65.5c9.6-3.4,16-12.4,16-22.5
				C480,230.7,469.2,220,456,220z M72,236h96v56H72V236z M72,308h96v16H72V308z M16,244c0-4.4,3.6-8,8-8h32v16H24
				C19.6,252,16,248.4,16,244z M104,436H88v-32h16V436z M392,436h-16v-32h16V436z M448,332c0,30.9-25.1,56-56,56H88
				c-30.9,0-56-25.1-56-56v-64h24v64c0,4.4,3.6,8,8,8h112c4.4,0,8-3.6,8-8v-64h264V332z M456,252H184v-16h272c4.4,0,8,3.6,8,8
				S460.4,252,456,252z"/>
		</g>
	</g>
</g>
</svg>
