<svg id="Capa_1" data-name="Capa 1" xmlns="http://www.w3.org/2000/svg" viewBox="0 0 512 416.1"><defs><style>.cls-1{fill:#fff;}</style></defs><path class="cls-1" d="M512,97.2a216.94,216.94,0,0,1-60.5,16.6,104.23,104.23,0,0,0,46.2-58,210.5,210.5,0,0,1-66.6,25.4A104.92,104.92,0,0,0,249.6,153a109.49,109.49,0,0,0,2.4,23.9C164.7,172.6,87.5,130.8,35.6,67.1A105,105,0,0,0,67.8,207.4a103.26,103.26,0,0,1-47.4-12.9v1.2a105.38,105.38,0,0,0,84.1,103.1A106.24,106.24,0,0,1,77,302.3a93.9,93.9,0,0,1-19.9-1.8c13.6,41.6,52.2,72.1,98.1,73.1A211.19,211.19,0,0,1,25.1,418.4,206.55,206.55,0,0,1,0,417a295.36,295.36,0,0,0,161,47.1c193.2,0,298.8-160,298.8-298.7,0-4.6-.2-9.1-.4-13.6A210.19,210.19,0,0,0,512,97.2Z" transform="translate(0 -48)"/></svg>