<?xml version="1.0" encoding="utf-8"?>
<!-- Generator: Adobe Illustrator 24.3.0, SVG Export Plug-In . SVG Version: 6.00 Build 0)  -->
<svg version="1.1" id="Capa_1" xmlns="http://www.w3.org/2000/svg" xmlns:xlink="http://www.w3.org/1999/xlink" x="0px" y="0px"
	 viewBox="0 0 512 512" style="enable-background:new 0 0 512 512;" xml:space="preserve">
<style type="text/css">
	.st0{fill:#FFFFFF;}
</style>
<g>
	<g>
		<path class="st0" d="M372.1,47.8C341,17,299.9,0,256.1,0c-0.4,0-0.8,0-1.2,0C212.2,0.3,171.7,17,141,47.2
			c-30.7,30.1-48.3,70.2-49.5,112.9c-1.2,44.5,15.1,86.7,45.9,118.7c24.3,25.2,37.6,58.8,37.6,94.5v68.7c0,14.1,9.8,26,22.9,29.2
			v9.2c0,17.5,14.2,31.8,31.8,31.8h52.5c17.5,0,31.8-14.2,31.8-31.8v-9.1c13.3-3.1,23.2-15,23.2-29.2v-68.7
			c0-35.2,13.7-69.2,38.7-95.6c29-30.7,44.9-70.8,44.9-113C420.8,120.5,403.5,79,372.1,47.8z M294,480.3c0,6.5-5.3,11.8-11.8,11.8
			h-52.5c-6.5,0-11.8-5.3-11.8-11.8v-8.3h76V480.3z M317.2,441.9c0,5.5-4.5,10-10,10H304h-96h-2.9c-5.5,0-10-4.5-10-10v-56.9h122.1
			L317.2,441.9L317.2,441.9z M240.4,365.1V238.6h31.2v126.5L240.4,365.1L240.4,365.1z M361.3,264c-26.5,28.1-41.9,63.7-43.9,101.1
			h-25.8V238.6h9c16,0,29-13,29-29V208c0-16-13-29-29-29s-29,13-29,29v10.5h-31.2V208c0-16-13-29-29-29h-2c-16,0-29,13-29,29v1.6
			c0,16,13,29,29,29h11v126.5h-25.6c-1.9-37.8-17-73.1-43-100.2c-27.1-28.1-41.4-65.2-40.3-104.3C113.6,83.6,178,20.5,255.1,20
			c38.9-0.3,75.4,14.6,103,42c27.6,27.4,42.7,63.8,42.7,102.6C400.8,201.7,386.7,237,361.3,264z M291.6,218.6V208c0-5,4-9,9-9
			c5,0,9,4,9,9v1.6c0,5-4,9-9,9H291.6z M220.4,208v10.5l0,0h-11c-5,0-9-4-9-9V208c0-5,4-9,9-9h2C216.4,199.1,220.4,203.1,220.4,208z
			"/>
	</g>
</g>
<g>
	<g>
		<path class="st0" d="M363.3,121.4c-8.6-21.3-23.2-39.5-42.2-52.5c-19.5-13.3-42.4-20.3-66.1-20.1c-5.5,0-10,4.5-9.9,10.1
			c0,5.5,4.5,9.9,10,9.9c0,0,0,0,0.1,0c0.2,0,0.5,0,0.7,0c39.4,0,74.3,23.5,89,60.1c1.6,3.9,5.3,6.3,9.3,6.3c1.2,0,2.5-0.2,3.7-0.7
			C362.9,132.3,365.4,126.5,363.3,121.4z"/>
	</g>
</g>
<g>
	<g>
		<path class="st0" d="M368.7,157.6c-1.9-1.9-4.4-2.9-7.1-2.9s-5.2,1.1-7.1,2.9c-1.9,1.9-2.9,4.4-2.9,7.1c0,2.6,1.1,5.2,2.9,7.1
			c1.9,1.9,4.4,2.9,7.1,2.9c2.6,0,5.2-1.1,7.1-2.9c1.9-1.9,2.9-4.4,2.9-7.1C371.7,162,370.6,159.4,368.7,157.6z"/>
	</g>
</g>
<g>
	<g>
		<path class="st0" d="M464.4,49.8c-3.9-3.9-10.2-3.9-14.1,0l-18.6,18.6c-3.9,3.9-3.9,10.2,0,14.1c2,2,4.5,2.9,7.1,2.9
			s5.1-1,7.1-2.9L464.4,64C468.3,60,468.3,53.7,464.4,49.8z"/>
	</g>
</g>
<g>
	<g>
		<path class="st0" d="M464.4,265.4l-18.6-18.6c-3.9-3.9-10.2-3.9-14.1,0c-3.9,3.9-3.9,10.2,0,14.1l18.6,18.6c2,2,4.5,2.9,7.1,2.9
			s5.1-1,7.1-2.9C468.3,275.6,468.3,269.3,464.4,265.4z"/>
	</g>
</g>
<g>
	<g>
		<path class="st0" d="M502,154.7h-26.3c-5.5,0-10,4.5-10,10s4.5,10,10,10H502c5.5,0,10-4.5,10-10S507.5,154.7,502,154.7z"/>
	</g>
</g>
<g>
	<g>
		<path class="st0" d="M80.3,68.4L61.7,49.8c-3.9-3.9-10.2-3.9-14.1,0c-3.9,3.9-3.9,10.2,0,14.1l18.6,18.6c2,2,4.5,2.9,7.1,2.9
			s5.1-1,7.1-2.9C84.2,78.7,84.2,72.3,80.3,68.4z"/>
	</g>
</g>
<g>
	<g>
		<path class="st0" d="M80.3,246.7c-3.9-3.9-10.2-3.9-14.1,0l-18.6,18.6c-3.9,3.9-3.9,10.2,0,14.1c2,2,4.5,2.9,7.1,2.9
			s5.1-1,7.1-2.9l18.6-18.6C84.2,257,84.2,250.6,80.3,246.7z"/>
	</g>
</g>
<g>
	<g>
		<path class="st0" d="M36.3,154.7H10c-5.5,0-10,4.5-10,10s4.5,10,10,10h26.3c5.5,0,10-4.5,10-10S41.9,154.7,36.3,154.7z"/>
	</g>
</g>
</svg>
