<svg id="Capa_1" data-name="Capa 1" xmlns="http://www.w3.org/2000/svg" viewBox="0 0 460.74 512"><defs><style>.cls-1{fill:#509407;}</style></defs><path class="cls-1" d="M365.37,251.45h35.71a14.66,14.66,0,0,0,14.64-14.64V201.1a14.67,14.67,0,0,0-14.64-14.65H365.37a14.66,14.66,0,0,0-14.65,14.65v35.71A14.67,14.67,0,0,0,365.37,251.45Zm.35-50h35v35h-35Zm-.35,145h35.71a14.66,14.66,0,0,0,14.64-14.64V296.1a14.67,14.67,0,0,0-14.64-14.65H365.37a14.66,14.66,0,0,0-14.65,14.65v35.71A14.67,14.67,0,0,0,365.37,346.45Zm.35-50h35v35h-35Zm-102.27-45h35.71a14.67,14.67,0,0,0,14.65-14.64V201.1a14.66,14.66,0,0,0-14.65-14.65H263.47a14.67,14.67,0,0,0-14.64,14.65v35.71a14.66,14.66,0,0,0,14.64,14.64Zm.36-50h35v35h-35ZM95.37,372H59.64A14.66,14.66,0,0,0,45,386.64v35.72A14.66,14.66,0,0,0,59.64,437H95.37A14.68,14.68,0,0,0,110,422.36V386.64A14.68,14.68,0,0,0,95.37,372ZM95,422H60V387H95Zm.35-235.55H59.64A14.67,14.67,0,0,0,45,201.1v35.71a14.66,14.66,0,0,0,14.64,14.64H95.37A14.68,14.68,0,0,0,110,236.81V201.1a14.67,14.67,0,0,0-14.63-14.65Zm-.35,50H60v-35H95ZM263.47,344.23h35.71a14.66,14.66,0,0,0,14.65-14.65V293.87a14.67,14.67,0,0,0-14.65-14.64H263.47a14.66,14.66,0,0,0-14.64,14.64v35.71A14.67,14.67,0,0,0,263.47,344.23Zm.36-50h35v35h-35Zm159.36-260H391.13V22.81A22.83,22.83,0,0,0,368.37,0h-3.44a22.83,22.83,0,0,0-22.86,22.8h0V34.27H118.67V22.81A22.83,22.83,0,0,0,95.86,0H92.42A22.83,22.83,0,0,0,69.61,22.81V34.27H37.55A37.59,37.59,0,0,0,0,71.82V474.5A37.54,37.54,0,0,0,37.5,512H423.24a37.54,37.54,0,0,0,37.5-37.5V71.82a37.59,37.59,0,0,0-37.55-37.55ZM357.07,22.81A7.81,7.81,0,0,1,364.88,15h3.49a7.81,7.81,0,0,1,7.81,7.81V34.27H357.07Zm-272.46,0A7.83,7.83,0,0,1,92.42,15h3.44a7.81,7.81,0,0,1,7.81,7.81V34.27H84.61V22.81ZM445.74,474.5a22.52,22.52,0,0,1-22.5,22.5H37.5A22.52,22.52,0,0,1,15,474.5v-.05A37.3,37.3,0,0,0,37.55,482H341.63a37.37,37.37,0,0,0,26.55-11l77.56-77.56Zm-85.21-17.06a32,32,0,0,0,.91-7.56V399.81a17.14,17.14,0,0,1,17.12-17.12h50.06a32.18,32.18,0,0,0,7.57-.9Zm85.21-316H126.17a7.5,7.5,0,0,0,0,15H445.74V350.57a17.14,17.14,0,0,1-17.12,17.12H378.56a32.16,32.16,0,0,0-32.12,32.12v50.07A17.14,17.14,0,0,1,329.37,467H37.55A22.57,22.57,0,0,1,15,444.45v-288H96.17a7.5,7.5,0,1,0,0-15H15V71.82A22.57,22.57,0,0,1,37.55,49.27H69.61V71.33a22.83,22.83,0,0,0,22.81,22.8,7.5,7.5,0,1,0,0-15h0a7.81,7.81,0,0,1-7.81-7.8V49.27H342.07V71.33a22.83,22.83,0,0,0,22.81,22.8,7.5,7.5,0,0,0,0-15,7.81,7.81,0,0,1-7.81-7.8V49.27h66.12a22.57,22.57,0,0,1,22.55,22.55ZM95.37,279.23H59.64A14.66,14.66,0,0,0,45,293.87v35.71a14.67,14.67,0,0,0,14.64,14.65H95.37A14.67,14.67,0,0,0,110,329.58V293.87A14.68,14.68,0,0,0,95.37,279.23Zm-.35,50H60v-35H95Zm66.56-77.78h35.69a14.66,14.66,0,0,0,14.64-14.64V201.1a14.67,14.67,0,0,0-14.64-14.65H161.56a14.66,14.66,0,0,0-14.65,14.65v35.71a14.67,14.67,0,0,0,14.65,14.64Zm.35-50h35v35h-35ZM263.82,422a7.5,7.5,0,0,0-15,.36A14.67,14.67,0,0,0,263.47,437h35.71a14.67,14.67,0,0,0,14.65-14.64V386.64A14.67,14.67,0,0,0,299.18,372H263.47a14.66,14.66,0,0,0-14.64,14.64v10.3a7.5,7.5,0,0,0,15,0V387h35v35ZM161.56,344.23h35.71a14.67,14.67,0,0,0,14.64-14.65V293.87a14.66,14.66,0,0,0-14.64-14.64H161.56a14.67,14.67,0,0,0-14.65,14.64v35.71A14.66,14.66,0,0,0,161.56,344.23Zm.35-50h35v35h-35ZM161.56,437h35.71a14.66,14.66,0,0,0,14.64-14.64V386.64A14.66,14.66,0,0,0,197.27,372H161.56a14.67,14.67,0,0,0-14.65,14.64v35.72A14.67,14.67,0,0,0,161.56,437Zm.35-50h35v35h-35Z" transform="translate(0 0)"/></svg>