<svg id="Layer_1" data-name="Layer 1" xmlns="http://www.w3.org/2000/svg" viewBox="0 0 510.9 510.9"><defs><style>.cls-1{fill:#fff;}</style></defs><path class="cls-1" d="M510.5,150.2c-1.2-27.2-5.6-45.8-11.9-62a125.59,125.59,0,0,0-29.5-45.3,124.9,124.9,0,0,0-45.2-29.4c-16.3-6.3-34.8-10.7-62-11.9C334.5.3,325.8,0,256.4,0S178.3.3,151.1,1.5s-45.8,5.6-62,11.9A125.14,125.14,0,0,0,43.8,42.9,124.9,124.9,0,0,0,14.4,88.1c-6.3,16.3-10.7,34.8-11.9,62C1.2,177.5.9,186.1.9,255.5s.3,78.1,1.5,105.3,5.6,45.8,11.9,62a126.92,126.92,0,0,0,29.5,45.3A124.9,124.9,0,0,0,89,497.5c16.3,6.3,34.8,10.7,62,11.9s35.9,1.5,105.3,1.5,78.1-.3,105.3-1.5,45.8-5.6,62-11.9a130.88,130.88,0,0,0,74.8-74.8c6.3-16.3,10.7-34.8,11.9-62s1.5-35.9,1.5-105.3S511.7,177.5,510.5,150.2Zm-46,208.7c-1.1,25-5.3,38.4-8.8,47.4a84.85,84.85,0,0,1-48.5,48.5c-9,3.5-22.6,7.7-47.4,8.8-27,1.2-35,1.5-103.2,1.5s-76.4-.3-103.2-1.5c-25-1.1-38.4-5.3-47.4-8.8a77.58,77.58,0,0,1-29.3-19.1,80,80,0,0,1-19.1-29.3c-3.5-9-7.7-22.6-8.8-47.4-1.2-27-1.5-35-1.5-103.2s.3-76.4,1.5-103.2c1.1-25,5.3-38.4,8.8-47.4A75.64,75.64,0,0,1,76.7,75.8,80,80,0,0,1,106,56.7c9-3.5,22.6-7.7,47.4-8.8,27-1.2,35-1.5,103.2-1.5s76.4.3,103.2,1.5c25,1.1,38.4,5.3,47.4,8.8a77.58,77.58,0,0,1,29.3,19.1,79.54,79.54,0,0,1,19.1,29.4c3.5,9,7.7,22.6,8.8,47.4,1.2,27,1.5,35,1.5,103.2S465.7,331.9,464.5,358.9Z" transform="translate(-0.9)"/><path class="cls-1" d="M256.4,124.3A131.32,131.32,0,0,0,125.1,255.6c0,72.5,58.9,131.2,131.3,131.2a131.25,131.25,0,1,0,0-262.5Zm0,216.4a85.2,85.2,0,1,1,85.2-85.2A85.21,85.21,0,0,1,256.4,340.7Z" transform="translate(-0.9)"/><path class="cls-1" d="M423.6,119.1A30.6,30.6,0,1,1,393,88.5,30.6,30.6,0,0,1,423.6,119.1Z" transform="translate(-0.9)"/></svg>