<svg id="Capa_1" data-name="Capa 1" xmlns="http://www.w3.org/2000/svg" viewBox="0 0 460.75 512"><defs><style>.cls-1{fill:#caced6;}</style></defs><path class="cls-1" d="M391,251.45h35.71a14.66,14.66,0,0,0,14.64-14.64V201.1a14.66,14.66,0,0,0-14.64-14.65H391a14.66,14.66,0,0,0-14.65,14.65v35.71A14.66,14.66,0,0,0,391,251.45Zm.35-50h35v35h-35Zm-.35,145h35.71a14.66,14.66,0,0,0,14.64-14.64V296.1a14.66,14.66,0,0,0-14.64-14.65H391a14.66,14.66,0,0,0-14.65,14.65v35.71A14.66,14.66,0,0,0,391,346.45Zm.35-50h35v35h-35Zm-102.27-45h35.71a14.66,14.66,0,0,0,14.65-14.64V201.1a14.66,14.66,0,0,0-14.65-14.65H289.1a14.66,14.66,0,0,0-14.64,14.65v35.71A14.66,14.66,0,0,0,289.1,251.45Zm.36-50h35v35h-35ZM121,372H85.27a14.65,14.65,0,0,0-14.64,14.64v35.72A14.65,14.65,0,0,0,85.27,437H121a14.66,14.66,0,0,0,14.65-14.64V386.64A14.66,14.66,0,0,0,121,372Zm-.35,50h-35V387h35ZM121,186.45H85.27A14.66,14.66,0,0,0,70.63,201.1v35.71a14.65,14.65,0,0,0,14.64,14.64H121a14.66,14.66,0,0,0,14.65-14.64V201.1A14.66,14.66,0,0,0,121,186.45Zm-.35,50h-35v-35h35ZM289.1,344.23h35.71a14.66,14.66,0,0,0,14.65-14.65V293.87a14.66,14.66,0,0,0-14.65-14.64H289.1a14.66,14.66,0,0,0-14.64,14.64v35.71A14.66,14.66,0,0,0,289.1,344.23Zm.36-50h35v35h-35Zm159.36-260H416.76V22.81A22.83,22.83,0,0,0,394,0h-3.44A22.83,22.83,0,0,0,367.7,22.81V34.27H144.3V22.81A22.83,22.83,0,0,0,121.49,0h-3.44A22.83,22.83,0,0,0,95.24,22.81V34.27H63.18A37.59,37.59,0,0,0,25.63,71.82V474.5A37.54,37.54,0,0,0,63.13,512H448.87a37.54,37.54,0,0,0,37.5-37.5V71.82a37.59,37.59,0,0,0-37.55-37.55ZM382.7,22.81A7.81,7.81,0,0,1,390.51,15H394a7.81,7.81,0,0,1,7.81,7.81V34.27H382.7Zm-272.46,0A7.82,7.82,0,0,1,118.05,15h3.44a7.81,7.81,0,0,1,7.81,7.81V34.27H110.24V22.81ZM471.37,474.5a22.52,22.52,0,0,1-22.5,22.5H63.13a22.52,22.52,0,0,1-22.5-22.5v-.05A37.3,37.3,0,0,0,63.18,482H367.26a37.31,37.31,0,0,0,26.55-11l77.56-77.56Zm-85.21-17.06a32,32,0,0,0,.91-7.56V399.81a17.14,17.14,0,0,1,17.12-17.12h50.06a32.55,32.55,0,0,0,7.57-.9Zm85.21-316H151.8a7.5,7.5,0,0,0,0,15H471.37V350.57a17.14,17.14,0,0,1-17.12,17.12H404.19a32.16,32.16,0,0,0-32.12,32.12v50.07A17.14,17.14,0,0,1,355,467H63.18a22.57,22.57,0,0,1-22.55-22.55v-288H121.8a7.5,7.5,0,1,0,0-15H40.63V71.82A22.57,22.57,0,0,1,63.18,49.27H95.24V71.33a22.83,22.83,0,0,0,22.81,22.8,7.5,7.5,0,1,0,0-15,7.81,7.81,0,0,1-7.81-7.8V49.27H367.7V71.33a22.83,22.83,0,0,0,22.81,22.8,7.5,7.5,0,0,0,0-15,7.81,7.81,0,0,1-7.81-7.8V49.27h66.12a22.57,22.57,0,0,1,22.55,22.55ZM121,279.23H85.27a14.66,14.66,0,0,0-14.64,14.64v35.71a14.66,14.66,0,0,0,14.64,14.65H121a14.66,14.66,0,0,0,14.65-14.65V293.87A14.66,14.66,0,0,0,121,279.23Zm-.35,50h-35v-35h35Zm66.56-77.78H222.9a14.66,14.66,0,0,0,14.64-14.64V201.1a14.66,14.66,0,0,0-14.64-14.65H187.19a14.66,14.66,0,0,0-14.65,14.65v35.71A14.66,14.66,0,0,0,187.19,251.45Zm.35-50h35v35h-35ZM289.45,422a7.5,7.5,0,0,0-15,.36A14.66,14.66,0,0,0,289.1,437h35.71a14.66,14.66,0,0,0,14.65-14.64V386.64A14.66,14.66,0,0,0,324.81,372H289.1a14.66,14.66,0,0,0-14.64,14.64v10.3a7.5,7.5,0,0,0,15,0V387h35v35ZM187.19,344.23H222.9a14.66,14.66,0,0,0,14.64-14.65V293.87a14.66,14.66,0,0,0-14.64-14.64H187.19a14.66,14.66,0,0,0-14.65,14.64v35.71A14.66,14.66,0,0,0,187.19,344.23Zm.35-50h35v35h-35ZM187.19,437H222.9a14.66,14.66,0,0,0,14.64-14.64V386.64A14.66,14.66,0,0,0,222.9,372H187.19a14.66,14.66,0,0,0-14.65,14.64v35.72A14.66,14.66,0,0,0,187.19,437Zm.35-50h35v35h-35Z" transform="translate(-25.63 0)"/></svg>