<svg id="Bold" xmlns="http://www.w3.org/2000/svg" viewBox="0 0 512.54 512.49"><defs><style>.cls-1{fill:#fff;}</style></defs><path class="cls-1" d="M497.3,310.3C534.3,143.7,388.4-7.6,217,21.4,123.9-36.3,0,28.9,0,139.6a137.08,137.08,0,0,0,19.5,70.6c-34.5,167,112.7,316.2,284,285.1C424.5,559.4,558.3,431.8,497.3,310.3Zm-163,100.5c-45,18.5-119,18.6-163.8-4.8-63.9-34-75.2-110.7-20.1-110.7,41.5,0,28.4,48.4,70.3,68.1,19.2,8.9,60.6,9.8,84.7-6.4,23.7-15.9,21.6-40.9,8.7-52.8-34.2-31.6-132.1-19-176.8-74.3-19.4-24-23.1-66.3.8-97C179.7,79.3,301.9,76,354.5,116.5c48.5,37.5,35.4,87.4-3.7,87.4-47.1,0-22.3-61.6-98.3-61.6-55.1,0-76.8,39.2-38,58.3C267,226.7,401,218,401,320.1c-.1,42.5-26.1,74.2-66.7,90.7Z" transform="translate(0 0.05)"/></svg>