<?xml version="1.0" encoding="utf-8"?>
<!-- Generator: Adobe Illustrator 24.3.0, SVG Export Plug-In . SVG Version: 6.00 Build 0)  -->
<svg version="1.1" id="Bold" xmlns="http://www.w3.org/2000/svg" xmlns:xlink="http://www.w3.org/1999/xlink" x="0px" y="0px"
	 viewBox="0 0 512 512" style="enable-background:new 0 0 512 512;" xml:space="preserve">
<style type="text/css">
	.st0{fill:#CACED6;}
</style>
<path class="st0" d="M497.3,310.3C534.3,143.7,388.4-7.6,217,21.4C123.9-36.3,0,28.9,0,139.6c0,25.7,7.1,49.9,19.5,70.6
	c-34.5,167,112.7,316.2,284,285.1C424.5,559.4,558.3,431.8,497.3,310.3z M334.3,410.8c-45,18.5-119,18.6-163.8-4.8
	c-63.9-34-75.2-110.7-20.1-110.7c41.5,0,28.4,48.4,70.3,68.1c19.2,8.9,60.6,9.8,84.7-6.4c23.7-15.9,21.6-40.9,8.7-52.8
	c-34.2-31.6-132.1-19-176.8-74.3c-19.4-24-23.1-66.3,0.8-97c41.6-53.6,163.8-56.9,216.4-16.4c48.5,37.5,35.4,87.4-3.7,87.4
	c-47.1,0-22.3-61.6-98.3-61.6c-55.1,0-76.8,39.2-38,58.3C267,226.7,401,218,401,320.1C400.9,362.6,374.9,394.3,334.3,410.8
	L334.3,410.8z"/>
</svg>
