<?xml version="1.0" encoding="utf-8"?>
<!-- Generator: Adobe Illustrator 24.3.0, SVG Export Plug-In . SVG Version: 6.00 Build 0)  -->
<svg version="1.1" id="Layer_1" xmlns="http://www.w3.org/2000/svg" xmlns:xlink="http://www.w3.org/1999/xlink" x="0px" y="0px"
	 viewBox="0 0 144 144" style="enable-background:new 0 0 144 144;" xml:space="preserve">
<style type="text/css">
	.st0{fill:#07153A;}
	.st1{fill:#FFFFFF;}
</style>
<g id="Layer_1_1_">
	<rect x="-108" y="133.6" class="st0" width="416" height="416"/>
	<path class="st1" d="M89,283.4c-24.8,0-45,5.6-58.5,10.1V381L6.3,394.8c0-7.9,0-16,0-23.9c0-9.9,0-19.7,0-29.6
		c0-14.1,0-28.1,0-42.2c0-11.5-1.4-12.9,0-16c3.7-9,15.2-12.7,41.9-16c36.3-4.2,57.4-6.8,87.3,0c17.7,4.2,32.1,10.1,41.9,14.9v46.7
		l-16.6,6.2c-3.4,2-3.4,2-3.4,2v-42.2C157.7,295.2,118,283.4,89,283.4z"/>
	<polygon class="st1" points="44.3,308.7 44.3,383.6 8,404.7 93.5,452.2 177.1,406.6 177.1,339.6 115.5,367.5 116,392.3 
		154.3,372.3 154.3,393.4 93.5,427.2 49.3,401.6 65.7,395.1 65.7,339.6 90.7,357.7 114.9,342.5 115.5,356.5 138,345 138,308.7 
		92.7,334.6 	"/>
</g>
<g id="Layer_2_1_">
</g>
</svg>
