<?xml version="1.0" encoding="utf-8"?>
<!-- Generator: Adobe Illustrator 24.3.0, SVG Export Plug-In . SVG Version: 6.00 Build 0)  -->
<svg version="1.1" id="Capa_1" xmlns="http://www.w3.org/2000/svg" xmlns:xlink="http://www.w3.org/1999/xlink" x="0px" y="0px"
	 viewBox="0 0 612 612" style="enable-background:new 0 0 612 612;" xml:space="preserve">
<style type="text/css">
	.st0{fill:#646C7F;}
</style>
<g>
	<g>
		<path class="st0" d="M535,0H77C35.9,0,2.6,33.4,2.6,74.4v300.5c0,41,33.4,74.4,74.4,74.4h250.9v144.6c0,7.6,4.7,14.4,11.8,17
			c2.1,0.8,4.2,1.1,6.3,1.1c5.2,0,10.2-2.2,13.7-6.3l135.5-156.4H535c41,0,74.4-33.4,74.4-74.4V74.4C609.4,33.4,576.1,0,535,0z
			 M573.1,374.9c0,21-17.1,38.1-38.1,38.1c0,0-47,0-47.2,0c-5.4-0.3-10.8,1.9-14.6,6.3L364.1,545.2v-114c0-10-8.1-18.2-18.2-18.2H77
			c-21,0-38.1-17.1-38.1-38.1V74.4c0-21,17.1-38.1,38.1-38.1H535c21,0,38.1,17.1,38.1,38.1L573.1,374.9L573.1,374.9L573.1,374.9z"/>
		<path class="st0" d="M509.3,119.8H102.7c-10,0-18.2,8.1-18.2,18.2s8.1,18.2,18.2,18.2h406.6c10,0,18.2-8.1,18.2-18.2
			S519.3,119.8,509.3,119.8z"/>
		<path class="st0" d="M509.3,206.5H102.7c-10,0-18.2,8.1-18.2,18.2s8.1,18.2,18.2,18.2h406.6c10,0,18.2-8.1,18.2-18.2
			S519.3,206.5,509.3,206.5z"/>
		<path class="st0" d="M295.2,293.2H102.7c-10,0-18.2,8.1-18.2,18.2s8.1,18.2,18.2,18.2h192.4c10,0,18.2-8.1,18.2-18.2
			C313.3,301.4,305.2,293.2,295.2,293.2z"/>
	</g>
</g>
</svg>
