<svg id="Capa_1" data-name="Capa 1" xmlns="http://www.w3.org/2000/svg" viewBox="0 0 606.8 612"><defs><style>.cls-1{fill:#509407;}</style></defs><path class="cls-1" d="M535,0H77A74.45,74.45,0,0,0,2.6,74.4V374.9A74.52,74.52,0,0,0,77,449.3H327.9V593.9a18.07,18.07,0,0,0,11.8,17A17.44,17.44,0,0,0,346,612a17.92,17.92,0,0,0,13.7-6.3L495.2,449.3H535a74.52,74.52,0,0,0,74.4-74.4V74.4A74.45,74.45,0,0,0,535,0Zm38.1,374.9A38.15,38.15,0,0,1,535,413H487.8a18,18,0,0,0-14.6,6.3L364.1,545.2v-114A18.2,18.2,0,0,0,345.9,413H77a38.15,38.15,0,0,1-38.1-38.1V74.4A38.15,38.15,0,0,1,77,36.3H535a38.15,38.15,0,0,1,38.1,38.1V374.9Z" transform="translate(-2.6)"/><path class="cls-1" d="M509.3,119.8H102.7a18.2,18.2,0,0,0,0,36.4H509.3a18.2,18.2,0,0,0,0-36.4Z" transform="translate(-2.6)"/><path class="cls-1" d="M509.3,206.5H102.7a18.2,18.2,0,0,0,0,36.4H509.3a18.2,18.2,0,0,0,0-36.4Z" transform="translate(-2.6)"/><path class="cls-1" d="M295.2,293.2H102.7a18.2,18.2,0,1,0,0,36.4H295.1a18.2,18.2,0,0,0,.1-36.4Z" transform="translate(-2.6)"/></svg>