<?xml version="1.0" encoding="utf-8"?>
<!-- Generator: Adobe Illustrator 24.3.0, SVG Export Plug-In . SVG Version: 6.00 Build 0)  -->
<svg version="1.1" id="Layer_1" xmlns="http://www.w3.org/2000/svg" xmlns:xlink="http://www.w3.org/1999/xlink" x="0px" y="0px"
	 viewBox="0 0 1920 1080" style="enable-background:new 0 0 1920 1080;" xml:space="preserve">
<style type="text/css">
	.st0{fill:#FFFFFF;stroke:#231F20;stroke-miterlimit:10;}
	.st1{fill:#FFFFFF;stroke:#231F20;stroke-width:1;stroke-miterlimit:10.0003;}
</style>
<g id="XMLID_404_">
	<g id="XMLID_15_">
		<g id="XMLID_29_">
			<g id="XMLID_33_">
				<polygon id="XMLID_34_" class="st0" points="816.3,279.9 948.6,147.6 1080.9,279.9 1178.4,279.9 948.6,50.1 718.8,279.9 				"/>
			</g>
			<g id="XMLID_31_">
				<polygon id="XMLID_32_" class="st0" points="1091.8,327.5 1091.8,461.5 802.7,461.5 802.7,327.5 733.8,327.5 733.8,530.5 
					1160.7,530.5 1160.7,327.5 				"/>
			</g>
			<rect id="XMLID_30_" x="776.3" y="153.6" class="st0" width="69.6" height="74.7"/>
		</g>
		<g id="XMLID_1_">
			<path id="XMLID_2_" class="st0" d="M184.1,677.8v201.9H137v-85.4H54.9v85.4H7.8V677.8h47.1v84.4H137v-84.4H184.1z"/>
			<path id="XMLID_28_" class="st0" d="M421.4,778.7c0,14.6-2.5,28.2-7.5,40.7c-5,12.6-12.1,23.5-21.3,32.8
				c-9.1,9.3-20.2,16.6-33,21.8c-12.9,5.3-27.2,7.9-42.9,7.9c-15.7,0-30-2.6-43-7.9s-24-12.5-33.2-21.8
				c-9.2-9.3-16.3-20.2-21.3-32.8c-5-12.6-7.6-26.2-7.6-40.7c0-14.6,2.5-28.2,7.6-40.8c5-12.6,12.1-23.5,21.3-32.7
				c9.2-9.2,20.2-16.5,33.2-21.8s27.3-7.9,43-7.9c15.7,0,30,2.7,42.9,8c12.9,5.3,23.9,12.6,33,21.8c9.1,9.2,16.2,20.1,21.3,32.7
				C418.9,750.7,421.4,764.2,421.4,778.7z M373.4,778.7c0-10-1.3-19-3.9-27c-2.6-8-6.3-14.8-11.2-20.3c-4.9-5.5-10.8-9.8-17.8-12.8
				s-15-4.4-24-4.4c-9.1,0-17.1,1.5-24.2,4.4c-7.1,3-13,7.2-17.9,12.8c-4.9,5.5-8.6,12.3-11.2,20.3s-3.9,17-3.9,27
				c0,10.1,1.3,19.1,3.9,27.1c2.6,8,6.3,14.8,11.2,20.3c4.9,5.5,10.8,9.8,17.9,12.7s15.1,4.4,24.2,4.4c9,0,17-1.5,24-4.4
				s13-7.1,17.8-12.7c4.9-5.5,8.6-12.3,11.2-20.3S373.4,788.8,373.4,778.7z"/>
			<path id="XMLID_45_" class="st0" d="M533.2,842.8c6.3,0,11.9-1,16.8-3.1s9.1-5.1,12.5-8.9s6-8.6,7.8-14.2
				c1.8-5.6,2.7-11.9,2.7-19.1V677.8H620v119.6c0,12.4-2,23.8-6,34.1s-9.8,19.3-17.2,26.8c-7.5,7.5-16.6,13.3-27.3,17.5
				c-10.7,4.2-22.8,6.2-36.2,6.2c-13.5,0-25.6-2.1-36.3-6.2s-19.8-10-27.3-17.5c-7.5-7.5-13.2-16.4-17.2-26.8c-4-10.3-6-21.7-6-34.1
				V677.8h46.8v119.5c0,7.1,0.9,13.5,2.7,19.1c1.8,5.6,4.4,10.3,7.8,14.3c3.4,3.9,7.6,6.9,12.5,9
				C521.3,841.7,526.9,842.8,533.2,842.8z"/>
			<path id="XMLID_49_" class="st0" d="M768.1,718.8c-1.4,2.2-2.8,3.9-4.4,5c-1.5,1.1-3.5,1.7-5.9,1.7c-2.1,0-4.4-0.7-6.9-2
				s-5.2-2.8-8.3-4.5c-3.1-1.7-6.6-3.2-10.6-4.5s-8.5-2-13.6-2c-8.8,0-15.3,1.9-19.6,5.6c-4.3,3.7-6.5,8.8-6.5,15.2
				c0,4.1,1.3,7.4,3.9,10.1s6,5,10.2,6.9c4.2,1.9,9,3.7,14.4,5.3c5.4,1.6,10.9,3.4,16.6,5.4c5.6,2,11.2,4.3,16.6,7
				s10.2,6.1,14.4,10.3c4.2,4.2,7.6,9.2,10.2,15.2c2.6,6,3.9,13.2,3.9,21.5c0,9.3-1.6,18.1-4.8,26.2c-3.2,8.1-7.9,15.2-14.1,21.3
				c-6.1,6.1-13.7,10.8-22.7,14.3c-9,3.5-19.2,5.2-30.7,5.2c-6.3,0-12.7-0.7-19.2-1.9s-12.8-3.1-18.9-5.5
				c-6.1-2.4-11.8-5.2-17.2-8.4c-5.4-3.2-10-6.8-14-10.8l13.9-21.9c1.1-1.6,2.6-2.9,4.4-4c1.8-1.1,3.8-1.6,5.9-1.6
				c2.8,0,5.6,0.9,8.4,2.6c2.8,1.8,6,3.7,9.6,5.8s7.6,4.1,12.3,5.8c4.6,1.8,10.1,2.6,16.3,2.6c8.5,0,15.1-1.9,19.8-5.6
				s7.1-9.7,7.1-17.8c0-4.7-1.3-8.5-3.9-11.5c-2.6-3-6-5.4-10.2-7.3c-4.2-1.9-9-3.7-14.3-5.1c-5.4-1.5-10.9-3.1-16.5-4.9
				c-5.6-1.8-11.1-4-16.5-6.7c-5.4-2.6-10.1-6.1-14.3-10.4c-4.2-4.3-7.6-9.7-10.2-16.1c-2.6-6.4-3.9-14.3-3.9-23.8
				c0-7.6,1.5-15,4.6-22.2c3-7.2,7.5-13.6,13.5-19.3c5.9-5.6,13.2-10.1,21.8-13.5s18.4-5.1,29.5-5.1c6.2,0,12.2,0.5,18.1,1.5
				c5.9,1,11.4,2.4,16.7,4.3c5.3,1.9,10.2,4.2,14.8,6.8s8.7,5.6,12.3,8.9L768.1,718.8z"/>
			<path id="XMLID_53_" class="st0" d="M857.2,713.9V761h63.5v34.7h-63.5v48.1h82.9v36h-130V677.8h130v36H857.2z"/>
			<path id="XMLID_57_" class="st0" d="M1080.5,718.8c-1.4,2.2-2.8,3.9-4.4,5s-3.5,1.7-5.9,1.7c-2.1,0-4.4-0.7-6.9-2
				s-5.2-2.8-8.3-4.5s-6.6-3.2-10.6-4.5s-8.5-2-13.6-2c-8.8,0-15.3,1.9-19.6,5.6s-6.4,8.8-6.4,15.2c0,4.1,1.3,7.4,3.9,10.1
				s6,5,10.2,6.9c4.2,1.9,9,3.7,14.4,5.3c5.4,1.6,10.9,3.4,16.6,5.4c5.6,2,11.2,4.3,16.6,7s10.2,6.1,14.4,10.3
				c4.2,4.2,7.6,9.2,10.2,15.2c2.6,6,3.9,13.2,3.9,21.5c0,9.3-1.6,18.1-4.8,26.2c-3.2,8.1-7.9,15.2-14.1,21.3
				c-6.2,6.1-13.7,10.8-22.7,14.3c-9,3.5-19.2,5.2-30.7,5.2c-6.3,0-12.7-0.7-19.2-1.9c-6.5-1.3-12.8-3.1-18.9-5.5
				c-6.1-2.4-11.8-5.2-17.2-8.4c-5.4-3.2-10-6.8-14-10.8l13.9-21.9c1.1-1.6,2.6-2.9,4.4-4c1.8-1.1,3.8-1.6,5.9-1.6
				c2.8,0,5.6,0.9,8.4,2.6c2.8,1.8,6,3.7,9.6,5.8s7.6,4.1,12.3,5.8c4.6,1.8,10.1,2.6,16.3,2.6c8.5,0,15.1-1.9,19.8-5.6
				s7.1-9.7,7.1-17.8c0-4.7-1.3-8.5-3.9-11.5c-2.6-3-6-5.4-10.2-7.3c-4.2-1.9-9-3.7-14.3-5.1c-5.4-1.5-10.9-3.1-16.5-4.9
				c-5.6-1.8-11.1-4-16.5-6.7c-5.4-2.6-10.1-6.1-14.3-10.4c-4.2-4.3-7.6-9.7-10.2-16.1c-2.6-6.4-3.9-14.3-3.9-23.8
				c0-7.6,1.5-15,4.6-22.2c3-7.2,7.5-13.6,13.5-19.3c5.9-5.6,13.2-10.1,21.8-13.5s18.4-5.1,29.5-5.1c6.2,0,12.2,0.5,18.1,1.5
				c5.9,1,11.4,2.4,16.7,4.3c5.3,1.9,10.2,4.2,14.8,6.8c4.6,2.6,8.7,5.6,12.3,8.9L1080.5,718.8z"/>
			<path id="XMLID_95_" class="st0" d="M1349.5,677.8v201.9h-41.3V763.6c0-2.7,0.1-5.6,0.2-8.7c0.1-3.1,0.4-6.3,0.8-9.6l-53.6,103.8
				c-1.7,3.2-3.9,5.7-6.7,7.3c-2.8,1.7-6,2.5-9.6,2.5h-6.4c-3.6,0-6.8-0.8-9.6-2.5s-5.1-4.1-6.7-7.3l-53.6-104.1
				c0.3,3.3,0.5,6.6,0.7,9.8c0.2,3.2,0.3,6.1,0.3,8.8v116.1h-41.3V677.8h35.8c2,0,3.8,0,5.3,0.1c1.5,0.1,2.9,0.4,4.1,0.8
				c1.2,0.5,2.3,1.2,3.3,2.2c1,1,1.9,2.3,2.8,4.1l52,102.4c1.8,3.5,3.6,7.2,5.3,11c1.7,3.8,3.3,7.7,4.9,11.6c1.6-4.1,3.2-8,4.9-11.9
				c1.7-3.9,3.5-7.6,5.5-11.1l51.8-102c0.9-1.8,1.9-3.1,2.8-4.1s2.1-1.7,3.3-2.2s2.6-0.7,4.1-0.8c1.5-0.1,3.3-0.1,5.3-0.1H1349.5z"
				/>
			<path id="XMLID_103_" class="st0" d="M1569.7,879.8h-36.3c-4.1,0-7.3-1-9.8-2.8c-2.5-1.9-4.4-4.3-5.7-7.3l-11.9-35.2h-76.8
				l-11.9,35.2c-1,2.6-2.8,4.9-5.5,7s-5.9,3.1-9.8,3.1h-36.6l78.2-201.9h48L1569.7,879.8z M1495.3,802.6l-18.7-55.3
				c-1.4-3.5-2.9-7.6-4.4-12.4c-1.6-4.8-3.1-9.9-4.7-15.5c-1.4,5.6-2.9,10.9-4.4,15.7c-1.6,4.8-3.1,9-4.4,12.5l-18.6,55
				L1495.3,802.6L1495.3,802.6z"/>
			<path id="XMLID_107_" class="st0" d="M1750.9,879.8h-42.4c-7.8,0-13.5-3-16.9-8.9l-33.5-58.6c-1.6-2.5-3.3-4.3-5.3-5.5
				c-1.9-1.2-4.7-1.7-8.3-1.7h-11.9v74.7h-46.8V677.8h65.7c14.6,0,27.1,1.5,37.3,4.5c10.3,3,18.7,7.2,25.2,12.5
				c6.5,5.4,11.2,11.7,14.2,19c2.9,7.3,4.4,15.2,4.4,23.8c0,6.6-0.9,12.8-2.6,18.6c-1.8,5.8-4.3,11.2-7.8,16.2
				c-3.4,4.9-7.6,9.3-12.7,13.2s-10.8,7.1-17.4,9.6c3.1,1.6,5.9,3.5,8.6,5.9c2.7,2.3,5.1,5.2,7.2,8.4L1750.9,879.8z M1651.4,772.8
				c6.4,0,11.8-0.8,16.3-2.4c4.5-1.6,8.2-3.9,11-6.7c2.9-2.9,4.9-6.2,6.2-10c1.3-3.8,1.9-8,1.9-12.4c0-8.9-2.9-15.8-8.7-20.8
				c-5.8-5-14.7-7.5-26.8-7.5h-18.8v59.9L1651.4,772.8L1651.4,772.8z"/>
			<path id="XMLID_128_" class="st0" d="M1909,715h-56.8v164.8h-46.8V715h-56.8v-37.1H1909V715z"/>
		</g>
		<g id="XMLID_13_">
			<path id="XMLID_130_" class="st0" d="M374.3,986.2c-0.3,0.5-0.6,0.8-0.9,1c-0.3,0.2-0.7,0.3-1.2,0.3c-0.5,0-1.1-0.3-1.9-0.8
				c-0.7-0.5-1.6-1.1-2.7-1.7c-1.1-0.6-2.4-1.2-3.9-1.7c-1.5-0.5-3.3-0.8-5.5-0.8c-2,0-3.8,0.3-5.3,0.8s-2.8,1.3-3.9,2.2
				c-1,0.9-1.8,2-2.3,3.3c-0.5,1.3-0.8,2.6-0.8,4.1c0,1.9,0.5,3.4,1.4,4.6c0.9,1.2,2.1,2.3,3.6,3.1c1.5,0.9,3.2,1.6,5.1,2.2
				c1.9,0.6,3.9,1.3,5.9,2s4,1.5,5.9,2.3c1.9,0.8,3.6,1.9,5.1,3.2s2.7,2.9,3.6,4.8c0.9,1.9,1.4,4.2,1.4,7c0,2.9-0.5,5.7-1.5,8.2
				c-1,2.6-2.4,4.8-4.4,6.7s-4.2,3.4-7,4.5s-5.9,1.6-9.5,1.6c-4.3,0-8.3-0.8-11.8-2.3c-3.5-1.6-6.6-3.7-9.1-6.3l2.6-4.3
				c0.2-0.3,0.5-0.6,0.9-0.9c0.4-0.2,0.8-0.3,1.2-0.3c0.4,0,0.9,0.2,1.4,0.5s1.1,0.7,1.7,1.2c0.6,0.5,1.4,1,2.2,1.6
				c0.8,0.6,1.8,1.1,2.9,1.6c1.1,0.5,2.3,0.9,3.6,1.2c1.4,0.3,2.9,0.5,4.6,0.5c2.1,0,4-0.3,5.7-0.9c1.7-0.6,3.1-1.4,4.2-2.5
				s2-2.3,2.7-3.8c0.6-1.5,0.9-3.1,0.9-5c0-2-0.5-3.7-1.4-5s-2.1-2.4-3.6-3.2c-1.5-0.9-3.2-1.6-5.1-2.2c-1.9-0.6-3.9-1.2-5.9-1.9
				c-2-0.6-3.9-1.4-5.9-2.2c-1.9-0.8-3.6-1.9-5.1-3.2c-1.5-1.3-2.7-3-3.6-5c-0.9-2-1.4-4.5-1.4-7.4c0-2.3,0.5-4.6,1.4-6.8
				s2.2-4.2,4-5.9c1.8-1.7,3.9-3.1,6.5-4.1c2.5-1,5.5-1.5,8.8-1.5c3.7,0,7.1,0.6,10.1,1.8s5.7,2.9,8.1,5.1L374.3,986.2z"/>
			<path id="XMLID_132_" class="st0" d="M456.8,1009.1c0,5-0.8,9.6-2.4,13.7c-1.6,4.2-3.8,7.8-6.7,10.8c-2.9,3-6.3,5.3-10.4,7
				c-4,1.7-8.5,2.5-13.4,2.5s-9.4-0.8-13.4-2.5c-4-1.7-7.5-4-10.4-7c-2.9-3-5.1-6.6-6.7-10.8c-1.6-4.2-2.4-8.7-2.4-13.7
				s0.8-9.6,2.4-13.7c1.6-4.2,3.8-7.8,6.7-10.8s6.3-5.4,10.4-7c4-1.7,8.5-2.5,13.4-2.5c4.9,0,9.4,0.8,13.4,2.5s7.5,4,10.4,7
				c2.9,3,5.1,6.6,6.7,10.8C456,999.6,456.8,1004.2,456.8,1009.1z M447.5,1009.1c0-4.1-0.6-7.8-1.7-11c-1.1-3.2-2.7-6-4.7-8.2
				c-2-2.2-4.5-4-7.4-5.2c-2.9-1.2-6.2-1.8-9.8-1.8c-3.6,0-6.8,0.6-9.7,1.8s-5.4,2.9-7.5,5.2s-3.6,5-4.8,8.2
				c-1.1,3.2-1.7,6.9-1.7,11c0,4.1,0.6,7.8,1.7,11c1.1,3.2,2.7,6,4.8,8.2c2.1,2.2,4.5,4,7.5,5.2c2.9,1.2,6.1,1.8,9.7,1.8
				c3.6,0,6.9-0.6,9.8-1.8c2.9-1.2,5.4-2.9,7.4-5.2c2-2.2,3.6-5,4.7-8.2S447.5,1013.2,447.5,1009.1z"/>
			<path id="XMLID_135_" class="st0" d="M483.3,983.2v23.3h27.4v7.3h-27.4v28.6h-9v-66.6h41v7.3L483.3,983.2L483.3,983.2z"/>
			<path id="XMLID_137_" class="st0" d="M576.5,983.4H555v59h-9v-59h-21.6v-7.6h52.1L576.5,983.4L576.5,983.4z"/>
			<path id="XMLID_139_" class="st0" d="M677.3,975.8l-20.8,66.6h-8.1l-16.9-50.8c-0.2-0.5-0.3-1-0.4-1.6s-0.3-1.2-0.4-1.8
				c-0.2,0.6-0.3,1.2-0.5,1.8c-0.2,0.6-0.3,1.1-0.5,1.6l-17,50.8h-8.1L584,975.8h7.5c0.8,0,1.5,0.2,2,0.6c0.5,0.4,0.9,0.9,1,1.5
				l13.8,46.3c0.2,0.8,0.4,1.7,0.6,2.7s0.4,2,0.6,3.1c0.2-1.1,0.4-2.1,0.7-3.1c0.2-1,0.5-1.9,0.8-2.7l15.7-46.3
				c0.2-0.5,0.5-1,1.1-1.5c0.5-0.5,1.2-0.7,2-0.7h2.6c0.8,0,1.5,0.2,2,0.6c0.5,0.4,0.9,0.9,1.1,1.5l15.6,46.3
				c0.3,0.8,0.5,1.7,0.8,2.6c0.2,0.9,0.5,1.9,0.7,2.9c0.2-1,0.3-2,0.5-2.9s0.4-1.8,0.6-2.6l13.8-46.3c0.2-0.6,0.5-1,1-1.5
				c0.5-0.4,1.2-0.7,2-0.7H677.3z"/>
			<path id="XMLID_141_" class="st0" d="M742.1,1042.4h-7c-0.8,0-1.5-0.2-2-0.6s-0.9-0.9-1.1-1.5l-6.2-16.1h-29.9l-6.2,16.1
				c-0.2,0.6-0.5,1.1-1.1,1.5c-0.5,0.4-1.2,0.7-2,0.7h-7l26.6-66.6h9.1L742.1,1042.4z M723.3,1017.7l-10.5-27.1
				c-0.3-0.8-0.6-1.7-1-2.8c-0.3-1.1-0.7-2.2-1-3.4c-0.7,2.5-1.3,4.6-2,6.3l-10.5,27L723.3,1017.7L723.3,1017.7z"/>
			<path id="XMLID_144_" class="st0" d="M804.7,1042.4h-8c-1.7,0-2.8-0.6-3.6-1.9l-17.3-23.8c-0.5-0.7-1.1-1.3-1.7-1.6
				c-0.6-0.3-1.5-0.5-2.8-0.5h-6.8v27.8h-9v-66.6h18.8c4.2,0,7.8,0.4,10.9,1.3c3.1,0.8,5.6,2.1,7.6,3.7s3.5,3.5,4.4,5.8
				c1,2.3,1.4,4.8,1.4,7.6c0,2.3-0.4,4.5-1.1,6.6c-0.8,2-1.8,3.9-3.2,5.5s-3.1,3-5.2,4.2c-2,1.2-4.3,2-6.9,2.6
				c1.2,0.7,2.1,1.6,3,2.8L804.7,1042.4z M774,1008.1c2.6,0,4.9-0.3,6.9-1c2-0.6,3.7-1.5,5-2.7c1.3-1.2,2.4-2.5,3-4.2s1-3.4,1-5.3
				c0-4-1.3-7-3.9-9c-2.6-2-6.5-3-11.7-3h-9.8v25.1L774,1008.1L774,1008.1z"/>
			<path id="XMLID_147_" class="st0" d="M859.5,1035.1l0,7.3h-41v-66.6h41v7.3h-32v22.1h25.9v7.1h-25.9v22.7L859.5,1035.1
				L859.5,1035.1z"/>
			<path id="XMLID_149_" class="st0" d="M947.4,983.4h-21.6v59h-9v-59h-21.6v-7.6h52.1L947.4,983.4L947.4,983.4z"/>
			<path id="XMLID_151_" class="st0" d="M1003,1035.1l0,7.3h-41v-66.6h41v7.3h-32v22.1h25.9v7.1h-25.9v22.7L1003,1035.1L1003,1035.1
				z"/>
			<path id="XMLID_153_" class="st0" d="M1065.5,1028.7c0.5,0,0.9,0.2,1.3,0.6l3.6,3.9c-2.7,3.2-6,5.6-9.9,7.4
				c-3.9,1.8-8.6,2.7-14.1,2.7c-4.8,0-9.1-0.8-13-2.5c-3.9-1.7-7.2-4-10-7c-2.8-3-4.9-6.6-6.4-10.8c-1.5-4.2-2.3-8.8-2.3-13.8
				c0-5,0.8-9.6,2.4-13.8s3.8-7.8,6.7-10.8s6.3-5.3,10.3-7c4-1.7,8.4-2.5,13.2-2.5c4.7,0,8.9,0.8,12.6,2.3c3.6,1.5,6.8,3.6,9.6,6.2
				l-3,4.1c-0.2,0.3-0.4,0.6-0.7,0.8c-0.3,0.2-0.7,0.3-1.2,0.3c-0.6,0-1.2-0.3-2.1-0.9c-0.8-0.6-1.9-1.3-3.2-2s-2.9-1.4-4.9-2
				c-1.9-0.6-4.3-0.9-7.2-0.9c-3.4,0-6.6,0.6-9.4,1.8s-5.3,2.9-7.4,5.2c-2.1,2.3-3.7,5-4.8,8.3c-1.2,3.2-1.7,6.9-1.7,11
				c0,4.2,0.6,7.8,1.8,11.1c1.2,3.2,2.8,6,4.9,8.2c2.1,2.2,4.5,4,7.3,5.1c2.8,1.2,5.8,1.8,9.1,1.8c2,0,3.8-0.1,5.4-0.3
				s3.1-0.6,4.4-1.1c1.3-0.5,2.6-1.1,3.8-1.9c1.2-0.8,2.3-1.7,3.5-2.7C1064.5,1028.9,1065,1028.7,1065.5,1028.7z"/>
			<path id="XMLID_157_" class="st0" d="M1139.5,975.8v66.6h-9v-30.3h-35.9v30.3h-9v-66.6h9v29.7h35.9v-29.7L1139.5,975.8
				L1139.5,975.8z"/>
			<path id="XMLID_159_" class="st0" d="M1215.1,975.8v66.6h-4.5c-0.7,0-1.3-0.1-1.8-0.4s-0.9-0.7-1.4-1.2l-38.5-50.2
				c0.1,0.8,0.1,1.5,0.1,2.3c0,0.8,0.1,1.4,0.1,2.1v47.4h-7.9v-66.6h4.7c0.4,0,0.7,0,1,0.1c0.3,0,0.5,0.1,0.7,0.2
				c0.2,0.1,0.4,0.3,0.7,0.5c0.2,0.2,0.4,0.5,0.7,0.8l38.5,50.1c-0.1-0.8-0.1-1.6-0.2-2.3c-0.1-0.8-0.1-1.5-0.1-2.2v-47.2
				L1215.1,975.8L1215.1,975.8z"/>
			<path id="XMLID_161_" class="st0" d="M1298.3,1009.1c0,5-0.8,9.6-2.4,13.7c-1.6,4.2-3.8,7.8-6.7,10.8c-2.9,3-6.3,5.3-10.4,7
				c-4,1.7-8.5,2.5-13.4,2.5s-9.4-0.8-13.4-2.5s-7.5-4-10.4-7s-5.1-6.6-6.7-10.8c-1.6-4.2-2.4-8.7-2.4-13.7s0.8-9.6,2.4-13.7
				c1.6-4.2,3.8-7.8,6.7-10.8c2.9-3,6.3-5.4,10.4-7c4-1.7,8.5-2.5,13.4-2.5c4.9,0,9.4,0.8,13.4,2.5s7.5,4,10.4,7
				c2.9,3,5.1,6.6,6.7,10.8C1297.5,999.6,1298.3,1004.2,1298.3,1009.1z M1289,1009.1c0-4.1-0.6-7.8-1.7-11c-1.1-3.2-2.7-6-4.7-8.2
				c-2.1-2.2-4.5-4-7.4-5.2c-2.9-1.2-6.2-1.8-9.8-1.8c-3.6,0-6.8,0.6-9.7,1.8c-2.9,1.2-5.4,2.9-7.5,5.2c-2.1,2.2-3.7,5-4.8,8.2
				c-1.1,3.2-1.7,6.9-1.7,11c0,4.1,0.6,7.8,1.7,11c1.1,3.2,2.7,6,4.8,8.2c2.1,2.2,4.6,4,7.5,5.2c2.9,1.2,6.2,1.8,9.7,1.8
				c3.6,0,6.8-0.6,9.8-1.8c2.9-1.2,5.4-2.9,7.4-5.2c2.1-2.2,3.6-5,4.7-8.2C1288.5,1016.9,1289,1013.2,1289,1009.1z"/>
			<path id="XMLID_164_" class="st0" d="M1353.6,1034.8v7.6h-37.8v-66.6h9v59H1353.6z"/>
			<path id="XMLID_166_" class="st0" d="M1426.6,1009.1c0,5-0.8,9.6-2.4,13.7c-1.6,4.2-3.8,7.8-6.7,10.8c-2.9,3-6.3,5.3-10.4,7
				s-8.5,2.5-13.4,2.5s-9.4-0.8-13.4-2.5c-4-1.7-7.5-4-10.4-7c-2.9-3-5.1-6.6-6.7-10.8c-1.6-4.2-2.4-8.7-2.4-13.7s0.8-9.6,2.4-13.7
				c1.6-4.2,3.8-7.8,6.7-10.8c2.9-3,6.3-5.4,10.4-7c4-1.7,8.5-2.5,13.4-2.5c4.9,0,9.4,0.8,13.4,2.5s7.5,4,10.4,7
				c2.9,3,5.1,6.6,6.7,10.8C1425.8,999.6,1426.6,1004.2,1426.6,1009.1z M1417.3,1009.1c0-4.1-0.6-7.8-1.7-11c-1.1-3.2-2.7-6-4.7-8.2
				c-2.1-2.2-4.5-4-7.4-5.2c-2.9-1.2-6.2-1.8-9.8-1.8c-3.6,0-6.8,0.6-9.7,1.8c-2.9,1.2-5.4,2.9-7.5,5.2c-2.1,2.2-3.7,5-4.8,8.2
				c-1.1,3.2-1.7,6.9-1.7,11c0,4.1,0.6,7.8,1.7,11c1.1,3.2,2.7,6,4.8,8.2c2.1,2.2,4.6,4,7.5,5.2c2.9,1.2,6.2,1.8,9.7,1.8
				c3.6,0,6.8-0.6,9.8-1.8c2.9-1.2,5.4-2.9,7.4-5.2c2.1-2.2,3.6-5,4.7-8.2S1417.3,1013.2,1417.3,1009.1z"/>
			<path id="XMLID_169_" class="st0" d="M1498.2,1010.4v25.6c-3.3,2.4-6.9,4.2-10.7,5.4c-3.8,1.2-7.9,1.8-12.5,1.8
				c-5.4,0-10.2-0.8-14.5-2.5c-4.3-1.7-8-4-11-7s-5.4-6.6-7-10.8s-2.5-8.8-2.5-13.8c0-5.1,0.8-9.7,2.4-13.9
				c1.6-4.2,3.9-7.8,6.8-10.8c2.9-3,6.5-5.3,10.7-7s8.9-2.5,14.1-2.5c2.6,0,5.1,0.2,7.3,0.6c2.3,0.4,4.3,1,6.3,1.7
				c1.9,0.7,3.7,1.6,5.3,2.7c1.6,1,3.2,2.2,4.6,3.5l-2.6,4.1c-0.4,0.6-0.9,1-1.6,1.2c-0.6,0.2-1.3,0-2.1-0.4c-0.7-0.4-1.6-1-2.6-1.6
				c-1-0.6-2.1-1.2-3.5-1.8c-1.4-0.6-3-1.1-4.9-1.5c-1.9-0.4-4.1-0.6-6.7-0.6c-3.8,0-7.1,0.6-10.2,1.8c-3,1.2-5.6,3-7.8,5.2
				c-2.1,2.3-3.8,5-4.9,8.3c-1.2,3.2-1.7,6.9-1.7,10.9c0,4.2,0.6,7.9,1.8,11.2c1.2,3.3,2.9,6.1,5.1,8.4c2.2,2.3,4.9,4.1,8.1,5.3
				c3.2,1.2,6.7,1.8,10.6,1.8c3.1,0,5.8-0.3,8.2-1.1c2.4-0.7,4.8-1.7,7-2.9v-14.6h-10.4c-0.6,0-1.1-0.2-1.4-0.5s-0.5-0.8-0.5-1.3
				v-5.1L1498.2,1010.4L1498.2,1010.4z"/>
			<path id="XMLID_171_" class="st0" d="M1540.1,1015.9v26.5h-9v-26.5l-24.4-40.1h7.9c0.8,0,1.4,0.2,1.9,0.6
				c0.5,0.4,0.9,0.9,1.2,1.5l15.2,25.9c0.6,1.1,1.1,2.1,1.5,3c0.5,1,0.9,1.9,1.2,2.9c0.3-1,0.7-1.9,1.2-2.9s0.9-2,1.4-3l15.2-25.9
				c0.3-0.5,0.7-1,1.2-1.4c0.5-0.4,1.1-0.7,1.9-0.7h7.9L1540.1,1015.9z"/>
		</g>
		<ellipse id="XMLID_16_" class="st1" cx="954.8" cy="333.3" rx="53.5" ry="53.5"/>
		<rect id="XMLID_17_" x="964.8" y="319.1" class="st0" width="196" height="32.7"/>
	</g>
</g>
</svg>
