<?xml version="1.0" encoding="utf-8"?>
<!-- Generator: Adobe Illustrator 24.3.0, SVG Export Plug-In . SVG Version: 6.00 Build 0)  -->
<svg version="1.1" id="Layer_1" xmlns="http://www.w3.org/2000/svg" xmlns:xlink="http://www.w3.org/1999/xlink" x="0px" y="0px"
	 viewBox="0 0 1920 1080" style="enable-background:new 0 0 1920 1080;" xml:space="preserve">
<style type="text/css">
	.st0{fill:#FFFFFF;stroke:#000000;stroke-miterlimit:10;}
</style>
<g id="XMLID_100_">
	<path id="XMLID_125_" class="st0" d="M683.2,582.5c9-24.6,21-47.7,35.8-68.8c0.9,6.9,1.8,13.6,2.5,20.3c1.8,16.2,2.1,32.4,1,48.5
		h216.2c4.2-11.2,12.2-21.3,24.6-28c11.2-6,22.4-12.3,27.8-28.3c-6.4,1.7-11,2.8-15.6,4.2c-25.3,7.8-7.7-11.1,4-14.4
		c7.1-2-6.3-7.4-6.3-7.4c0.3-0.5,8.9-3,18.5-7.1c6.6-2.8,13.3-5.9,18.8-10.4c3.5-2.9,4.9-8.5,7.2-12.8c-0.6-0.7-1.2-1.4-1.8-2
		c-6.7,0.9-13.4,1.9-20.1,2.6c-11.4,1.3-14-1-15.1-12.4c-0.7-7.9-8.7-12.1-16.2-8.1c-5,2.7-9.4,6.7-14.2,9.9
		c-11.2,7.2-19.6,4.4-24-8.1c-2.6-7.5-6.3-8.9-13.1-4.7c-3.4,2.1-6.3,5.1-9.8,7.1c-5.7,3.2-11.6,6.4-17.8,8.6
		c-6,2.1-13.2,3.7-17.3-2.9c-4.4-7.1-0.5-14,5-18.4c6.9-5.5,14.8-9.8,22.6-14.1c11.1-6.2,22.7-11.4,33.4-18.2
		c7.8-5,11.2-13.1,8.7-22.7c-0.5-1.7-1.1-3.1-1.9-4.3c5.1-0.4,10.3-0.6,15.5-0.8c9.2,7.8,20.3,12.4,31.9,15.9
		c12.6,3.8,14.4,2,16.2-11.3c1.5-0.3,3-0.7,4.5-1.1c23.9,3.8,46.9,10.5,68.5,19.7c0.3,0.3,0.6,0.5,0.9,0.8c1.9,1.9,0.8,7.6-0.2,11.4
		c-1.2,5-4,9.6-5.2,14.6c-2.5,9.7,3.8,17.3,13.8,17.1c3.2-0.1,6.3-0.7,9.5-0.9c9.3-0.4,12.6,3.1,11.7,12.5
		c-1.2,13.2,1,14.8,14.4,12.6c3.8-0.6,8.3,1.1,12.2,2.5c2.3,0.8,4.1,3,6.2,4.6c12.4,9.4,21.9,5.9,25.6-9.5c0.4-1.7,0.3-3.5,0.7-5.2
		c0-0.2,0.1-0.4,0.2-0.6c11.9,11.6,22.8,24.3,32.7,37.8c-4.4,8-4.1,16.9-2.4,25.6c2.7,13.1-0.8,24.5-5.9,36
		c-1.5,3.4-3.1,6.8-4.6,10.2h143.7c-44-161.8-192.1-281.2-367.7-281.2S634.3,420.7,590.4,582.5L683.2,582.5L683.2,582.5z"/>
	<path id="XMLID_117_" class="st0" d="M798.1,430.2c4.9-31,27.2-60.2,66.7-63.7c111.6-9.9,232.8-0.9,326.1,63.7h36.7v-56.8l5.8,3.4
		l12.5-21.2l-18.3-10.8v-32.9l-12.6-16.7l-12.1,16.7v18.4l-21.3-12.6v-34.9l-12.1-16.7l-12.6,16.7v20.4l-17.3-10.1v-80.6l6.3-1.7
		c1.9-0.5,3.3-2,3.8-3.8c0.5-1.9,0-3.9-1.4-5.2l-8.8-8.8v-1.3h-1.3l-167-167c-8.7-8.7-22.8-8.7-31.5,0l-74.1,74.1H851
		c0.4-32-22.6-30-22.6-44.1C828.5,38,842.8,30,842.8,7c-15.3,22.1-42.2,21.5-42.2,49.7c0,20.9,26.4,27,40,42H806v59.8L765.3,199
		c-1.5,1.5-2,3.8-1.2,5.9c0.8,2,2.8,3.3,5,3.3v84l-1.1,0l-14.8,8.7v-18.3L740.5,266l-12.1,16.7v32.9l-23.8,14v-17.8L692,295.1
		l-12.1,16.7v32.3l-19.3,11.4l12.5,21.2l6.8-4v57.4H798.1z M1181.5,346.2l21.3,12.6v17.6c-6.4-4.6-13.5-9-21.3-13.2V346.2z
		 M1139.6,321.5l17.3,10.2v19.9c-5.6-2.3-11.3-4.5-17.3-6.5V321.5z M753.1,329.7l16-9.4v25.3c-5.5,2-10.8,4-16,6.1V329.7z
		 M704.6,358.2l23.8-14v19c-8.8,4.7-16.8,9.7-23.8,15V358.2z"/>
	<path id="XMLID_116_" class="st0" d="M1360,585.9H565.4v-9.5c0,0,147.4-25.5,399-25.5s395.5,25.5,395.5,25.5V585.9z"/>
	<path id="XMLID_108_" class="st0" d="M985.6,326.8h-55.3V259c0-5.6,4.5-10.1,10.1-10.1h35c5.6,0,10.1,4.5,10.1,10.1V326.8z"/>
	<g id="XMLID_101_">
		<path id="XMLID_105_" class="st0" d="M941.3,146.6c-2.5,0-4.8,1.5-5.9,3.8s-0.7,5,0.9,6.9c4.7,5.6,11.7,9.2,19.6,9.2
			c7.9,0,14.9-3.6,19.6-9.2c1.6-1.9,2-4.6,0.9-6.9s-3.4-3.8-5.9-3.8L941.3,146.6L941.3,146.6z"/>
		<path id="XMLID_102_" class="st0" d="M981,135.6c-2.4-11.7-12.8-20.5-25.1-20.5c-12.4,0-22.8,8.8-25.2,20.5H981z"/>
	</g>
</g>
<g id="XMLID_88_">
	<path id="XMLID_262_" class="st0" d="M141,725.4c-1.4,2.3-2.9,4-4.5,5.1s-3.6,1.7-6,1.7c-2.2,0-4.5-0.7-7-2.1
		c-2.5-1.4-5.3-2.9-8.5-4.6c-3.2-1.7-6.8-3.2-10.8-4.6c-4.1-1.4-8.7-2.1-13.9-2.1c-9,0-15.7,1.9-20.1,5.8c-4.4,3.8-6.6,9-6.6,15.5
		c0,4.2,1.3,7.6,4,10.3c2.6,2.7,6.1,5.1,10.4,7.1c4.3,2,9.2,3.8,14.7,5.5c5.5,1.7,11.2,3.5,16.9,5.5c5.8,2,11.4,4.4,16.9,7.2
		s10.4,6.2,14.7,10.5s7.8,9.4,10.4,15.5c2.6,6.1,4,13.5,4,22c0,9.5-1.7,18.5-5,26.8c-3.3,8.3-8.1,15.6-14.4,21.8
		c-6.3,6.2-14,11.1-23.2,14.6c-9.2,3.5-19.7,5.3-31.4,5.3c-6.4,0-13-0.7-19.6-2c-6.7-1.3-13.1-3.2-19.3-5.6s-12.1-5.3-17.6-8.6
		c-5.5-3.3-10.2-7-14.3-11.1l14.2-22.4c1.1-1.6,2.6-3,4.5-4c1.8-1.1,3.8-1.6,6-1.6c2.8,0,5.7,0.9,8.6,2.7c2.9,1.8,6.1,3.8,9.8,6
		c3.6,2.2,7.8,4.2,12.5,6c4.7,1.8,10.3,2.7,16.7,2.7c8.7,0,15.4-1.9,20.3-5.8c4.8-3.8,7.2-9.9,7.2-18.2c0-4.8-1.3-8.7-4-11.8
		c-2.7-3-6.1-5.5-10.4-7.5c-4.3-2-9.2-3.7-14.7-5.2c-5.5-1.5-11.1-3.2-16.9-5c-5.8-1.8-11.4-4.1-16.9-6.8
		c-5.5-2.7-10.4-6.2-14.7-10.6c-4.3-4.4-7.8-9.9-10.4-16.4c-2.6-6.6-4-14.7-4-24.3c0-7.7,1.6-15.3,4.7-22.7s7.7-13.9,13.8-19.7
		c6-5.8,13.5-10.4,22.3-13.8s18.8-5.2,30.2-5.2c6.3,0,12.5,0.5,18.5,1.5s11.7,2.5,17.1,4.4c5.4,1.9,10.4,4.2,15.1,7
		c4.7,2.7,8.9,5.7,12.6,9.1L141,725.4z"/>
	<path id="XMLID_264_" class="st0" d="M416.1,683.5V890h-42.2V771.2c0-2.7,0.1-5.7,0.2-8.9c0.1-3.2,0.4-6.5,0.8-9.8L320,858.7
		c-1.7,3.3-4,5.8-6.9,7.5c-2.9,1.7-6.2,2.6-9.9,2.6h-6.5c-3.7,0-7-0.8-9.9-2.6c-2.9-1.7-5.2-4.2-6.9-7.5l-54.9-106.4
		c0.3,3.4,0.5,6.7,0.7,10s0.3,6.3,0.3,9V890h-42.2V683.5h36.6c2.1,0,3.9,0,5.5,0.1s2.9,0.4,4.2,0.8s2.3,1.2,3.3,2.2s2,2.4,2.9,4.2
		l53.2,104.8c1.9,3.6,3.7,7.3,5.5,11.2s3.4,7.8,5,11.9c1.6-4.2,3.3-8.2,5-12.2c1.8-4,3.6-7.7,5.6-11.3l53-104.3
		c0.9-1.8,1.9-3.2,2.9-4.2c1-1,2.1-1.7,3.3-2.2c1.2-0.5,2.6-0.8,4.2-0.8c1.6-0.1,3.4-0.1,5.5-0.1H416.1z"/>
	<path id="XMLID_266_" class="st0" d="M641.4,890h-37.1c-4.2,0-7.5-1-10.1-2.9c-2.5-1.9-4.5-4.4-5.8-7.4l-12.2-36h-78.5l-12.2,36
		c-1,2.7-2.9,5-5.6,7.2c-2.7,2.1-6,3.2-10,3.2h-37.4l80-206.5h49L641.4,890z M565.3,811l-19.1-56.6c-1.4-3.6-2.9-7.8-4.5-12.7
		s-3.2-10.1-4.8-15.8c-1.4,5.8-2.9,11.1-4.5,16c-1.6,4.9-3.1,9.2-4.5,12.8l-19,56.3L565.3,811L565.3,811z"/>
	<path id="XMLID_269_" class="st0" d="M782.2,851.7V890H657.7V683.5h47.9v168.3L782.2,851.7L782.2,851.7z"/>
	<path id="XMLID_272_" class="st0" d="M931,851.7V890H806.5V683.5h47.9v168.3L931,851.7L931,851.7z"/>
	<path id="XMLID_274_" class="st0" d="M1135.7,683.5V890h-48.2v-87.3h-83.9V890h-48.2V683.5h48.2v86.3h83.9v-86.3H1135.7z"/>
	<path id="XMLID_276_" class="st0" d="M1378.4,786.7c0,14.9-2.6,28.8-7.7,41.7s-12.4,24-21.8,33.5c-9.4,9.5-20.6,16.9-33.8,22.3
		c-13.2,5.4-27.8,8.1-43.9,8.1s-30.7-2.7-43.9-8.1c-13.2-5.4-24.6-12.8-33.9-22.3c-9.4-9.5-16.7-20.7-21.8-33.5s-7.7-26.7-7.7-41.7
		c0-14.9,2.6-28.8,7.7-41.7s12.4-24,21.8-33.5c9.4-9.5,20.7-16.9,33.9-22.3s27.9-8.1,43.9-8.1c16.1,0,30.7,2.7,43.9,8.2
		c13.2,5.4,24.4,12.9,33.8,22.3c9.4,9.5,16.6,20.6,21.8,33.5C1375.8,758,1378.4,771.8,1378.4,786.7z M1329.3,786.7
		c0-10.2-1.3-19.4-4-27.6c-2.7-8.2-6.4-15.1-11.4-20.8c-5-5.7-11-10-18.2-13c-7.2-3-15.4-4.5-24.5-4.5c-9.3,0-17.5,1.5-24.7,4.5
		c-7.2,3-13.3,7.4-18.3,13c-5,5.7-8.8,12.6-11.4,20.8c-2.7,8.2-4,17.4-4,27.6c0,10.3,1.3,19.5,4,27.7c2.6,8.2,6.4,15.1,11.4,20.8
		c5,5.7,11.1,10,18.3,13s15.5,4.5,24.7,4.5c9.2,0,17.3-1.5,24.5-4.5c7.2-3,13.2-7.3,18.2-13c5-5.7,8.8-12.6,11.4-20.8
		C1328,806.2,1329.3,797,1329.3,786.7z"/>
	<path id="XMLID_279_" class="st0" d="M1492.8,852.2c6.4,0,12.2-1.1,17.2-3.2c5.1-2.1,9.3-5.2,12.8-9.1c3.5-4,6.2-8.8,8-14.5
		c1.8-5.7,2.8-12.2,2.8-19.5V683.5h47.9v122.3c0,12.7-2.1,24.3-6.2,34.9s-10,19.7-17.7,27.4c-7.7,7.7-17,13.6-27.9,17.9
		c-11,4.2-23.3,6.4-37,6.4c-13.8,0-26.2-2.1-37.1-6.4c-11-4.2-20.3-10.2-27.9-17.9c-7.7-7.7-13.5-16.8-17.6-27.4
		c-4.1-10.6-6.1-22.2-6.1-34.9V683.5h47.9v122.2c0,7.3,0.9,13.8,2.8,19.5c1.8,5.7,4.5,10.6,8,14.6c3.5,4,7.8,7.1,12.8,9.2
		C1480.6,851.1,1486.4,852.2,1492.8,852.2z"/>
	<path id="XMLID_281_" class="st0" d="M1733.1,725.4c-1.4,2.3-2.9,4-4.5,5.1c-1.6,1.1-3.6,1.7-6,1.7c-2.2,0-4.5-0.7-7-2.1
		c-2.5-1.4-5.3-2.9-8.5-4.6c-3.2-1.7-6.8-3.2-10.8-4.6c-4.1-1.4-8.7-2.1-13.9-2.1c-9,0-15.7,1.9-20.1,5.8c-4.4,3.8-6.6,9-6.6,15.5
		c0,4.2,1.3,7.6,4,10.3c2.6,2.7,6.1,5.1,10.4,7.1c4.3,2,9.2,3.8,14.7,5.5c5.5,1.7,11.2,3.5,16.9,5.5c5.8,2,11.4,4.4,16.9,7.2
		c5.5,2.7,10.4,6.2,14.7,10.5s7.8,9.4,10.4,15.5c2.6,6.1,4,13.5,4,22c0,9.5-1.7,18.5-5,26.8c-3.3,8.3-8.1,15.6-14.4,21.8
		c-6.3,6.2-14,11.1-23.2,14.6c-9.2,3.5-19.7,5.3-31.4,5.3c-6.4,0-13-0.7-19.6-2c-6.7-1.3-13.1-3.2-19.3-5.6s-12.1-5.3-17.6-8.6
		c-5.5-3.3-10.2-7-14.3-11.1l14.2-22.4c1.1-1.6,2.6-3,4.5-4c1.8-1.1,3.8-1.6,6-1.6c2.8,0,5.7,0.9,8.6,2.7c2.9,1.8,6.1,3.8,9.8,6
		c3.6,2.2,7.8,4.2,12.5,6c4.7,1.8,10.3,2.7,16.7,2.7c8.7,0,15.4-1.9,20.3-5.8c4.8-3.8,7.2-9.9,7.2-18.2c0-4.8-1.3-8.7-4-11.8
		c-2.7-3-6.1-5.5-10.4-7.5c-4.3-2-9.2-3.7-14.7-5.2c-5.5-1.5-11.1-3.2-16.9-5c-5.8-1.8-11.4-4.1-16.9-6.8
		c-5.5-2.7-10.4-6.2-14.7-10.6c-4.3-4.4-7.8-9.9-10.4-16.4c-2.7-6.6-4-14.7-4-24.3c0-7.7,1.6-15.3,4.7-22.7s7.7-13.9,13.8-19.7
		c6.1-5.8,13.5-10.4,22.3-13.8s18.8-5.2,30.2-5.2c6.3,0,12.5,0.5,18.5,1.5s11.7,2.5,17.1,4.4s10.4,4.2,15.1,7
		c4.7,2.7,8.9,5.7,12.6,9.1L1733.1,725.4z"/>
	<path id="XMLID_283_" class="st0" d="M1824.2,720.3v48.2h64.9V804h-64.9v49.2h84.8V890h-133V683.5h133v36.9H1824.2z"/>
</g>
<g id="XMLID_154_">
	<path id="XMLID_285_" class="st0" d="M665,1056.4h-8.2c-1.7,0-2.9-0.7-3.7-1.9l-17.7-24.3c-0.5-0.8-1.1-1.3-1.7-1.6
		s-1.6-0.5-2.9-0.5h-7v28.4h-9.2v-68.1h19.2c4.3,0,8,0.4,11.2,1.3c3.1,0.9,5.7,2.1,7.8,3.8c2,1.7,3.5,3.6,4.5,6
		c1,2.3,1.5,4.9,1.5,7.8c0,2.4-0.4,4.7-1.1,6.8s-1.9,4-3.3,5.6c-1.4,1.7-3.2,3.1-5.3,4.2c-2.1,1.2-4.4,2.1-7.1,2.7
		c1.2,0.7,2.2,1.6,3,2.9L665,1056.4z M633.5,1021.2c2.7,0,5-0.3,7.1-1c2-0.7,3.8-1.6,5.1-2.8c1.4-1.2,2.4-2.6,3.1-4.2
		c0.7-1.7,1-3.5,1-5.5c0-4-1.3-7.1-4-9.2s-6.7-3.1-12-3.1h-10.1v25.7L633.5,1021.2L633.5,1021.2z"/>
	<path id="XMLID_288_" class="st0" d="M721,1048.9l0,7.5h-42v-68.1h42v7.5h-32.8v22.6h26.5v7.2h-26.5v23.2H721z"/>
	<path id="XMLID_308_" class="st0" d="M793.8,988.3v68.1h-4.6c-0.7,0-1.3-0.1-1.8-0.4c-0.5-0.3-1-0.7-1.5-1.3l-39.4-51.3
		c0.1,0.8,0.1,1.6,0.1,2.3s0,1.5,0,2.1v48.5h-8.1v-68.1h4.8c0.4,0,0.8,0,1,0.1s0.5,0.1,0.8,0.2c0.2,0.1,0.4,0.3,0.7,0.5
		c0.2,0.2,0.5,0.5,0.7,0.8l39.4,51.3c-0.1-0.8-0.1-1.6-0.2-2.4s-0.1-1.5-0.1-2.2v-48.2L793.8,988.3L793.8,988.3z"/>
	<path id="XMLID_310_" class="st0" d="M878.9,1022.3c0,5.1-0.8,9.8-2.4,14c-1.6,4.3-3.9,7.9-6.8,11c-3,3.1-6.5,5.5-10.6,7.2
		c-4.1,1.7-8.7,2.5-13.7,2.5c-5,0-9.6-0.8-13.7-2.5c-4.1-1.7-7.7-4.1-10.6-7.2c-3-3.1-5.2-6.7-6.8-11c-1.6-4.3-2.4-8.9-2.4-14
		s0.8-9.8,2.4-14c1.6-4.3,3.9-7.9,6.8-11c2.9-3.1,6.5-5.5,10.6-7.2s8.7-2.6,13.7-2.6s9.6,0.9,13.7,2.6c4.1,1.7,7.7,4.1,10.6,7.2
		c3,3.1,5.2,6.8,6.8,11C878.1,1012.6,878.9,1017.2,878.9,1022.3z M869.5,1022.3c0-4.2-0.6-7.9-1.7-11.3c-1.1-3.3-2.8-6.1-4.8-8.4
		c-2.1-2.3-4.6-4.1-7.6-5.3c-3-1.2-6.3-1.9-10-1.9c-3.6,0-7,0.6-9.9,1.9c-3,1.2-5.5,3-7.6,5.3s-3.7,5.1-4.9,8.4s-1.7,7.1-1.7,11.3
		s0.6,7.9,1.7,11.2c1.1,3.3,2.8,6.1,4.9,8.4c2.1,2.3,4.7,4.1,7.6,5.3s6.3,1.8,9.9,1.8c3.7,0,7-0.6,10-1.8c3-1.2,5.5-3,7.6-5.3
		c2.1-2.3,3.7-5.1,4.8-8.4C868.9,1030.3,869.5,1026.5,869.5,1022.3z"/>
	<path id="XMLID_313_" class="st0" d="M950.3,988.3l-27.8,68.1h-8.3l-27.8-68.1h7.4c0.8,0,1.5,0.2,2,0.6c0.5,0.4,0.9,0.9,1.1,1.6
		l19.2,48.1c0.4,1.1,0.8,2.2,1.2,3.5c0.4,1.3,0.8,2.6,1.1,4c0.3-1.4,0.7-2.7,1-4c0.3-1.3,0.7-2.4,1.1-3.5l19.2-48.1
		c0.2-0.5,0.6-1,1.1-1.5c0.5-0.5,1.2-0.7,2-0.7H950.3z"/>
	<path id="XMLID_316_" class="st0" d="M1014.3,1056.4h-7.1c-0.8,0-1.5-0.2-2-0.6s-0.9-0.9-1.1-1.6l-6.4-16.4h-30.6l-6.4,16.4
		c-0.2,0.6-0.6,1.1-1.1,1.5c-0.5,0.4-1.2,0.7-2,0.7h-7.1l27.2-68.1h9.3L1014.3,1056.4z M995.1,1031.1l-10.7-27.7
		c-0.3-0.8-0.7-1.8-1-2.9c-0.3-1.1-0.7-2.3-1-3.5c-0.7,2.6-1.3,4.7-2,6.4l-10.7,27.7L995.1,1031.1L995.1,1031.1z"/>
	<path id="XMLID_319_" class="st0" d="M1067.4,996h-22.1v60.4h-9.2V996h-22.1v-7.8h53.3L1067.4,996L1067.4,996z"/>
	<path id="XMLID_321_" class="st0" d="M1091.4,1056.4h-9.2v-68.1h9.2V1056.4z"/>
	<path id="XMLID_323_" class="st0" d="M1176.5,1022.3c0,5.1-0.8,9.8-2.4,14c-1.6,4.3-3.9,7.9-6.8,11c-2.9,3.1-6.5,5.5-10.6,7.2
		c-4.1,1.7-8.7,2.5-13.7,2.5c-5,0-9.6-0.8-13.7-2.5c-4.1-1.7-7.7-4.1-10.6-7.2c-2.9-3.1-5.2-6.7-6.8-11c-1.6-4.3-2.4-8.9-2.4-14
		s0.8-9.8,2.4-14c1.6-4.3,3.9-7.9,6.8-11c2.9-3.1,6.5-5.5,10.6-7.2s8.7-2.6,13.7-2.6c5,0,9.6,0.9,13.7,2.6c4.1,1.7,7.7,4.1,10.6,7.2
		c2.9,3.1,5.2,6.8,6.8,11C1175.7,1012.6,1176.5,1017.2,1176.5,1022.3z M1167.1,1022.3c0-4.2-0.6-7.9-1.7-11.3
		c-1.1-3.3-2.8-6.1-4.8-8.4c-2.1-2.3-4.6-4.1-7.6-5.3c-3-1.2-6.3-1.9-10-1.9c-3.6,0-7,0.6-9.9,1.9c-3,1.2-5.5,3-7.6,5.3
		s-3.7,5.1-4.9,8.4s-1.7,7.1-1.7,11.3s0.6,7.9,1.7,11.2c1.1,3.3,2.8,6.1,4.9,8.4c2.1,2.3,4.7,4.1,7.6,5.3s6.3,1.8,9.9,1.8
		c3.7,0,7-0.6,10-1.8c3-1.2,5.5-3,7.6-5.3s3.7-5.1,4.8-8.4C1166.5,1030.3,1167.1,1026.5,1167.1,1022.3z"/>
	<path id="XMLID_326_" class="st0" d="M1249.6,988.3v68.1h-4.6c-0.7,0-1.3-0.1-1.8-0.4c-0.5-0.3-1-0.7-1.4-1.3l-39.4-51.3
		c0.1,0.8,0.1,1.6,0.1,2.3s0.1,1.5,0.1,2.1v48.5h-8.1v-68.1h4.8c0.4,0,0.8,0,1.1,0.1s0.5,0.1,0.8,0.2s0.4,0.3,0.7,0.5
		c0.2,0.2,0.5,0.5,0.7,0.8l39.4,51.3c-0.1-0.8-0.1-1.6-0.2-2.4s-0.1-1.5-0.1-2.2v-48.2L1249.6,988.3L1249.6,988.3z"/>
	<path id="XMLID_328_" class="st0" d="M1306.6,998.9c-0.3,0.5-0.6,0.8-0.9,1.1c-0.3,0.2-0.7,0.4-1.2,0.4c-0.5,0-1.2-0.3-1.9-0.8
		c-0.7-0.5-1.6-1.1-2.7-1.8s-2.4-1.2-3.9-1.8c-1.5-0.5-3.4-0.8-5.6-0.8c-2.1,0-3.9,0.3-5.4,0.8c-1.6,0.6-2.9,1.3-3.9,2.3
		c-1.1,1-1.9,2.1-2.4,3.3c-0.5,1.3-0.8,2.7-0.8,4.2c0,1.9,0.5,3.5,1.4,4.7s2.2,2.3,3.7,3.2c1.5,0.9,3.3,1.7,5.2,2.3s3.9,1.3,6,2
		c2,0.7,4,1.5,6,2.4c1.9,0.9,3.7,2,5.2,3.3c1.5,1.3,2.8,3,3.7,4.9c0.9,1.9,1.4,4.3,1.4,7.1c0,3-0.5,5.8-1.5,8.4
		c-1,2.6-2.5,4.9-4.4,6.8c-1.9,1.9-4.3,3.4-7.2,4.6c-2.8,1.1-6.1,1.7-9.7,1.7c-4.4,0-8.5-0.8-12.1-2.4s-6.7-3.8-9.3-6.5l2.7-4.4
		c0.2-0.3,0.6-0.6,0.9-0.9c0.4-0.2,0.8-0.4,1.2-0.4c0.4,0,0.9,0.2,1.4,0.5c0.5,0.3,1.1,0.8,1.8,1.3c0.7,0.5,1.4,1.1,2.3,1.7
		c0.9,0.6,1.8,1.2,2.9,1.7c1.1,0.5,2.3,0.9,3.7,1.3c1.4,0.3,3,0.5,4.7,0.5c2.2,0,4.1-0.3,5.8-0.9c1.7-0.6,3.2-1.4,4.3-2.6
		c1.2-1.1,2.1-2.4,2.7-3.9c0.6-1.5,0.9-3.2,0.9-5.1c0-2.1-0.5-3.8-1.4-5.1s-2.2-2.4-3.7-3.3s-3.3-1.6-5.2-2.3c-2-0.6-4-1.3-6-1.9
		s-4-1.4-6-2.3c-2-0.9-3.7-2-5.2-3.3c-1.5-1.4-2.8-3.1-3.7-5.1c-0.9-2-1.4-4.6-1.4-7.6c0-2.4,0.5-4.7,1.4-7s2.3-4.2,4.1-6
		c1.8-1.7,4-3.1,6.6-4.2c2.6-1,5.6-1.6,9-1.6c3.8,0,7.3,0.6,10.4,1.8c3.1,1.2,5.9,3,8.2,5.2L1306.6,998.9z"/>
</g>
</svg>
