<?xml version="1.0" encoding="utf-8"?>
<!-- Generator: Adobe Illustrator 24.3.0, SVG Export Plug-In . SVG Version: 6.00 Build 0)  -->
<svg version="1.1" id="Layer_1" xmlns="http://www.w3.org/2000/svg" xmlns:xlink="http://www.w3.org/1999/xlink" x="0px" y="0px"
	 viewBox="0 0 1920 1080" style="enable-background:new 0 0 1920 1080;" xml:space="preserve">
<style type="text/css">
	.st0{fill:#FFFFFF;}
</style>
<g id="XMLID_499_">
	<g id="XMLID_507_">
		<path id="XMLID_510_" class="st0" d="M823.8,194.2c0-3.1-2.5-5.6-5.6-5.6h-3.6c-3.1,0-5.6,2.5-5.6,5.6v25.9c0,3.1,2.5,5.6,5.6,5.6
			h3.6c3.1,0,5.6-2.5,5.6-5.6V194.2z"/>
		<path id="XMLID_509_" class="st0" d="M846.1,194.2c0-3.1-2.5-5.6-5.7-5.6h-3.6c-3.1,0-5.6,2.5-5.6,5.6v25.9c0,3.1,2.5,5.6,5.6,5.6
			h3.6c3.1,0,5.7-2.5,5.7-5.6V194.2z"/>
		<path id="XMLID_508_" class="st0" d="M846.1,238.8c0-3.1-2.5-5.6-5.7-5.6h-26c-3.1,0-5.6,2.5-5.6,5.6V272c0,3.1,2.5,5.6,5.6,5.6
			h26c3.1,0,5.7-2.5,5.7-5.6V238.8z"/>
	</g>
	<g id="XMLID_505_">
		<path id="XMLID_506_" class="st0" d="M1294.9,516.2c-328.3-114.7-677-16.6-680.5-15.6l-1.6-7.4c8.9-2.6,137-69.3,331.1-69.3
			c148.6,0,345.1,76.6,345.1,76.6L1294.9,516.2z"/>
	</g>
	<path id="XMLID_500_" class="st0" d="M1285.8,278.8l-154.6-148.4c-1.3-1.3-1-2.3-2.8-3l-10.4-4.8V67.4c0-7.8-10.3-12.3-18.5-12.3
		h-28c-8.2,0-13,4.5-13,12.3v9.9h-7.4v7.4h7.4v15.3L812.5,4.6c-4.3-1.7-9.7-0.2-12.2,3.5L618.2,273.4c-1.4,2.1-1.7,4.8-0.4,7.1
		c1.3,2.2,13.1,2.2,15.8,2.2L803,29.1c1.6-2.3,4.2-3.8,7.1-4c2.9-0.2,5.7,0.8,7.6,2.9l235,242.2c2.6,2.7,6.2,4.3,10,4.5l63.2,3.2
		l-74.4,9L823.8,54.5c-2.4-2.5-5.9-3.8-9.5-3.6c-3.5,0.2-6.8,2-8.9,4.7L641.7,284l28.1,8.5l1.8,183.1l22.2-12.2v-95.4l89.1-148v69.2
		c0,11.1,11.8,17.9,23.3,17.9h49.2c11.5,0,24.3-6.9,24.3-17.9V180.1c0-11.1-12.8-21.2-24.3-21.2h-34.2l23.1-38
		c1.6-2.4,4.3-3.6,7.2-3.8c2.9-0.2,5.8,1,7.8,3.1l182,194.4c1.2,1.3,2.3,3.9,2.3,5.7v27.4c0,5.2,3.9,11.5,9.3,11.5h51
		c2.6,0,5.1-2,7-3.8l57.7-56.1c4.3-4.2,10.2-6.5,16.3-6.3l35.4,1.2l-46.2,68.1c-2.1,3.1-5.6,4.3-9.4,4.3h-111.8
		c-5.4,0-9.3,5.4-9.3,10.6v70.1c2.8,0.2,5.5,0.5,8.3,0.9l11.4-57.9l114.3-1.3v84.3c23.5,2.4,44.1,13.9,65.1,24.1l13.4,1.9
		c5.9-3.4,9.5,3.1,9.7-3.7l0.2-133.5c0-2.1,1.4-3.8,3.4-4.3l9.7-2.2c4.3-1,5.7-6.3,2.5-9.3l-56.3-52.2l64.8,2.6
		C1292.1,290.5,1290.7,283.4,1285.8,278.8z M1088.2,111.8l-14.9-6.3V84.8h14.9V111.8z M1088.2,77.4h-14.9v-7.4h14.9V77.4z
		 M855.4,173.8c2.7,0,2,3.8,2,6.4v105.4c0,2.1-1.8,3.9-3.9,3.9h-51.8c-2.2,0-3.9-1.8-3.9-3.9v-92.3l14.2-19.4L855.4,173.8
		L855.4,173.8z"/>
</g>
<g id="XMLID_19_">
	<path id="XMLID_173_" class="st0" d="M216.7,899h-49c-9.1,0-15.6-3.4-19.6-10.3l-38.8-67.8c-1.8-2.9-3.8-5-6.1-6.3
		c-2.2-1.3-5.4-2-9.6-2H79.8V899H25.7V665.5h75.9c16.9,0,31.3,1.7,43.2,5.2c11.9,3.5,21.6,8.3,29.2,14.5c7.5,6.2,13,13.5,16.4,22
		c3.4,8.4,5.1,17.6,5.1,27.6c0,7.6-1,14.7-3,21.5c-2,6.7-5,13-9,18.7c-3.9,5.7-8.8,10.8-14.7,15.3c-5.8,4.5-12.5,8.2-20.1,11
		c3.5,1.8,6.8,4.1,9.9,6.8c3.1,2.7,5.9,6,8.3,9.7L216.7,899z M101.6,775.3c7.4,0,13.6-0.9,18.8-2.8c5.2-1.9,9.4-4.5,12.7-7.8
		c3.3-3.3,5.7-7.2,7.2-11.6c1.5-4.4,2.2-9.2,2.2-14.3c0-10.3-3.3-18.3-10-24c-6.7-5.8-17-8.7-31-8.7H79.8v69.2L101.6,775.3
		L101.6,775.3z"/>
	<path id="XMLID_176_" class="st0" d="M290.9,707.2v54.5h73.4v40.1h-73.4v55.6h95.8V899H236.4V665.5h150.3v41.7H290.9z"/>
	<path id="XMLID_178_" class="st0" d="M629.4,899h-42c-4.7,0-8.5-1.1-11.4-3.3c-2.9-2.2-5.1-5-6.6-8.4l-13.8-40.7h-88.8l-13.8,40.7
		c-1.2,3-3.3,5.7-6.3,8.1c-3,2.4-6.8,3.6-11.3,3.6h-42.3l90.4-233.5H539L629.4,899z M543.4,809.7l-21.6-63.9
		c-1.6-4.1-3.3-8.8-5.1-14.3s-3.6-11.5-5.4-17.9c-1.6,6.5-3.3,12.5-5.1,18.1c-1.8,5.6-3.5,10.4-5.1,14.4l-21.5,63.6L543.4,809.7
		L543.4,809.7z"/>
	<path id="XMLID_181_" class="st0" d="M788.5,855.7V899H647.8V665.5H702v190.2H788.5z"/>
	<path id="XMLID_183_" class="st0" d="M1019.9,665.5V899h-54.5v-98.7h-94.9V899h-54.5V665.5h54.5v97.6h94.9v-97.6H1019.9z"/>
	<path id="XMLID_185_" class="st0" d="M1294.2,782.2c0,16.9-2.9,32.6-8.7,47.1c-5.8,14.5-14,27.2-24.6,37.9
		c-10.6,10.7-23.3,19.2-38.2,25.2c-14.9,6.1-31.4,9.1-49.6,9.1s-34.7-3-49.7-9.1c-14.9-6.1-27.8-14.5-38.4-25.2
		c-10.6-10.7-18.9-23.4-24.7-37.9c-5.8-14.5-8.7-30.2-8.7-47.1s2.9-32.6,8.7-47.1c5.8-14.5,14.1-27.1,24.7-37.8
		c10.6-10.7,23.4-19.1,38.4-25.2c15-6.1,31.5-9.1,49.7-9.1s34.7,3.1,49.6,9.2c14.9,6.2,27.6,14.6,38.2,25.2
		c10.6,10.7,18.8,23.3,24.6,37.8C1291.3,749.7,1294.2,765.4,1294.2,782.2z M1238.8,782.2c0-11.5-1.5-21.9-4.5-31.2
		c-3-9.2-7.3-17.1-12.9-23.5s-12.5-11.3-20.6-14.7s-17.4-5.1-27.7-5.1c-10.5,0-19.8,1.7-28,5.1c-8.2,3.4-15.1,8.3-20.7,14.7
		c-5.6,6.4-9.9,14.2-12.9,23.5c-3,9.2-4.5,19.6-4.5,31.2c0,11.6,1.5,22.1,4.5,31.3s7.3,17.1,12.9,23.5s12.5,11.3,20.7,14.7
		c8.2,3.4,17.5,5,28,5c10.4,0,19.6-1.7,27.7-5c8.1-3.4,15-8.2,20.6-14.7s9.9-14.2,12.9-23.5C1237.3,804.2,1238.8,793.8,1238.8,782.2
		z"/>
	<path id="XMLID_188_" class="st0" d="M1423.5,856.2c7.3,0,13.8-1.2,19.5-3.6c5.7-2.4,10.5-5.8,14.5-10.3c3.9-4.5,7-10,9.1-16.4
		c2.1-6.5,3.1-13.8,3.1-22V665.5h54.2v138.3c0,14.3-2.3,27.5-7,39.4c-4.6,12-11.3,22.3-19.9,30.9c-8.7,8.7-19.2,15.4-31.6,20.2
		c-12.4,4.8-26.3,7.2-41.8,7.2c-15.6,0-29.6-2.4-42-7.2c-12.4-4.8-22.9-11.5-31.6-20.2c-8.7-8.7-15.3-19-19.9-30.9
		c-4.6-12-6.9-25.1-6.9-39.4V665.5h54.2v138.1c0,8.2,1.1,15.6,3.1,22c2.1,6.5,5.1,12,9.1,16.5c3.9,4.5,8.8,8,14.5,10.4
		C1409.8,855,1416.2,856.2,1423.5,856.2z"/>
	<path id="XMLID_190_" class="st0" d="M1695.1,712.9c-1.6,2.6-3.3,4.5-5,5.8c-1.8,1.3-4,1.9-6.8,1.9c-2.5,0-5.1-0.8-7.9-2.3
		c-2.8-1.5-6-3.3-9.6-5.2c-3.6-1.9-7.7-3.7-12.3-5.2c-4.6-1.5-9.8-2.3-15.7-2.3c-10.2,0-17.7,2.2-22.7,6.5c-5,4.3-7.4,10.2-7.4,17.5
		c0,4.7,1.5,8.6,4.5,11.7c3,3.1,6.9,5.8,11.8,8s10.4,4.3,16.7,6.2s12.6,4,19.2,6.2c6.5,2.3,12.9,5,19.2,8.1
		c6.2,3.1,11.8,7,16.7,11.9s8.8,10.7,11.8,17.5c3,6.9,4.5,15.2,4.5,24.9c0,10.8-1.9,20.9-5.6,30.3c-3.8,9.4-9.2,17.6-16.3,24.6
		c-7.1,7-15.9,12.5-26.3,16.5c-10.4,4-22.2,6-35.5,6c-7.3,0-14.7-0.8-22.2-2.2c-7.5-1.5-14.8-3.6-21.9-6.3c-7.1-2.7-13.7-6-19.9-9.7
		c-6.2-3.7-11.6-7.9-16.2-12.5l16-25.3c1.3-1.8,3-3.3,5-4.6c2.1-1.2,4.3-1.8,6.8-1.8c3.2,0,6.4,1,9.7,3c3.3,2,6.9,4.3,11.1,6.7
		c4.1,2.5,8.8,4.7,14.2,6.7c5.3,2,11.6,3,18.9,3c9.8,0,17.5-2.2,22.9-6.5c5.4-4.3,8.2-11.2,8.2-20.6c0-5.5-1.5-9.9-4.5-13.3
		s-6.9-6.2-11.8-8.5c-4.9-2.2-10.4-4.2-16.6-5.9c-6.2-1.7-12.6-3.6-19.1-5.7c-6.5-2.1-12.9-4.7-19.1-7.7s-11.7-7-16.6-12
		c-4.9-5-8.8-11.2-11.8-18.6c-3-7.4-4.5-16.6-4.5-27.5c0-8.8,1.8-17.3,5.3-25.6s8.7-15.8,15.5-22.3c6.8-6.5,15.2-11.7,25.2-15.6
		c9.9-3.9,21.3-5.8,34.1-5.8c7.2,0,14.1,0.6,20.9,1.7c6.8,1.1,13.2,2.8,19.3,5c6.1,2.2,11.8,4.8,17.1,7.8c5.3,3,10,6.5,14.2,10.3
		L1695.1,712.9z"/>
	<path id="XMLID_192_" class="st0" d="M1798.1,707.2v54.5h73.4v40.1h-73.4v55.6h95.8V899h-150.3V665.5h150.3v41.7H1798.1z"/>
</g>
<g id="XMLID_14_">
	<path id="XMLID_194_" class="st0" d="M425.9,1060.1h-8.1c-0.9,0-1.7-0.2-2.3-0.7c-0.6-0.5-1-1.1-1.3-1.8l-7.2-18.6h-34.5l-7.2,18.6
		c-0.2,0.6-0.6,1.2-1.2,1.7s-1.4,0.8-2.3,0.8h-8.1l30.8-77h10.5L425.9,1060.1z M404.1,1031.6l-12.1-31.3c-0.4-0.9-0.7-2-1.1-3.2
		c-0.4-1.2-0.8-2.5-1.1-4c-0.8,2.9-1.5,5.3-2.3,7.3l-12.1,31.3L404.1,1031.6L404.1,1031.6z"/>
	<path id="XMLID_198_" class="st0" d="M503.8,983.2v77h-5.2c-0.8,0-1.5-0.1-2.1-0.4s-1.1-0.8-1.6-1.4l-44.5-58
		c0.1,0.9,0.1,1.8,0.2,2.6c0,0.9,0.1,1.7,0.1,2.4v54.9h-9.1v-77h5.4c0.5,0,0.9,0,1.2,0.1c0.3,0,0.6,0.1,0.9,0.3s0.5,0.3,0.8,0.5
		c0.2,0.2,0.5,0.5,0.8,0.9l44.5,58c-0.1-0.9-0.1-1.8-0.2-2.7c0-0.9-0.1-1.7-0.1-2.5v-54.5L503.8,983.2L503.8,983.2z"/>
	<path id="XMLID_200_" class="st0" d="M609.2,1051.7l0,8.5h-47.5v-77h47.5v8.5h-37v25.6h30v8.2h-30v26.3H609.2z"/>
	<path id="XMLID_202_" class="st0" d="M668.5,995.2c-0.3,0.5-0.7,0.9-1,1.2s-0.8,0.4-1.4,0.4c-0.6,0-1.3-0.3-2.1-0.9s-1.8-1.3-3.1-2
		c-1.2-0.7-2.7-1.4-4.5-2c-1.7-0.6-3.8-0.9-6.3-0.9c-2.3,0-4.4,0.3-6.2,0.9c-1.8,0.6-3.3,1.5-4.5,2.5c-1.2,1.1-2.1,2.3-2.7,3.8
		c-0.6,1.5-0.9,3-0.9,4.7c0,2.2,0.5,3.9,1.6,5.3c1.1,1.4,2.5,2.6,4.2,3.6c1.7,1,3.7,1.9,5.9,2.6c2.2,0.7,4.5,1.5,6.8,2.3
		c2.3,0.8,4.6,1.7,6.8,2.7c2.2,1,4.2,2.2,5.9,3.7c1.7,1.5,3.1,3.3,4.2,5.5c1,2.2,1.6,4.9,1.6,8.1c0,3.4-0.6,6.5-1.7,9.5
		c-1.2,3-2.8,5.5-5,7.7c-2.2,2.2-4.9,3.9-8.1,5.2s-6.8,1.9-10.9,1.9c-5,0-9.6-0.9-13.7-2.7c-4.1-1.8-7.6-4.2-10.5-7.3l3-4.9
		c0.3-0.4,0.6-0.7,1-1c0.4-0.3,0.9-0.4,1.4-0.4c0.5,0,1,0.2,1.6,0.6c0.6,0.4,1.3,0.8,2,1.4c0.8,0.6,1.6,1.2,2.6,1.9
		c1,0.7,2.1,1.3,3.3,1.9c1.2,0.6,2.6,1.1,4.2,1.4c1.6,0.4,3.3,0.6,5.3,0.6c2.5,0,4.7-0.3,6.6-1c1.9-0.7,3.6-1.6,4.9-2.9
		c1.3-1.2,2.4-2.7,3.1-4.4c0.7-1.7,1.1-3.6,1.1-5.8c0-2.3-0.5-4.2-1.6-5.7c-1.1-1.5-2.5-2.7-4.2-3.7c-1.7-1-3.7-1.8-5.9-2.6
		c-2.2-0.7-4.5-1.4-6.8-2.2c-2.3-0.7-4.5-1.6-6.8-2.5c-2.2-1-4.2-2.2-5.9-3.8c-1.7-1.5-3.1-3.5-4.2-5.8c-1.1-2.3-1.6-5.2-1.6-8.6
		c0-2.7,0.5-5.4,1.6-7.9c1-2.5,2.6-4.8,4.6-6.8c2-2,4.5-3.5,7.5-4.7c3-1.2,6.3-1.8,10.2-1.8c4.3,0,8.2,0.7,11.7,2
		c3.5,1.4,6.6,3.3,9.3,5.9L668.5,995.2z"/>
	<path id="XMLID_204_" class="st0" d="M744.8,991.9h-24.9v68.2h-10.4v-68.2h-25v-8.8h60.3L744.8,991.9L744.8,991.9z"/>
	<path id="XMLID_206_" class="st0" d="M816.7,1060.1h-8.1c-0.9,0-1.7-0.2-2.3-0.7s-1-1.1-1.3-1.8l-7.2-18.6h-34.5l-7.2,18.6
		c-0.2,0.6-0.6,1.2-1.2,1.7s-1.4,0.8-2.3,0.8h-8.1l30.8-77h10.5L816.7,1060.1z M795,1031.6l-12.1-31.3c-0.4-0.9-0.7-2-1.1-3.2
		c-0.4-1.2-0.8-2.5-1.1-4c-0.8,2.9-1.5,5.3-2.3,7.3l-12.1,31.3L795,1031.6L795,1031.6z"/>
	<path id="XMLID_209_" class="st0" d="M876.7,991.9h-24.9v68.2h-10.4v-68.2h-25v-8.8h60.3L876.7,991.9L876.7,991.9z"/>
	<path id="XMLID_211_" class="st0" d="M940.9,1051.7l0,8.5h-47.5v-77h47.5v8.5h-37v25.6h30v8.2h-30v26.3H940.9z"/>
	<path id="XMLID_213_" class="st0" d="M1047.8,1044.2c0.6,0,1.1,0.2,1.5,0.7l4.1,4.5c-3.2,3.7-7,6.5-11.5,8.5s-9.9,3.1-16.3,3.1
		c-5.5,0-10.5-1-15-2.9c-4.5-1.9-8.4-4.6-11.6-8.1c-3.2-3.5-5.7-7.6-7.4-12.4c-1.8-4.8-2.6-10.2-2.6-16s0.9-11.1,2.7-16
		s4.4-9,7.7-12.5c3.3-3.5,7.3-6.2,11.9-8.1c4.6-1.9,9.7-2.9,15.3-2.9c5.5,0,10.3,0.9,14.5,2.6c4.2,1.8,7.9,4.1,11.1,7.2l-3.4,4.8
		c-0.2,0.4-0.5,0.7-0.8,0.9c-0.3,0.2-0.8,0.3-1.4,0.3c-0.7,0-1.4-0.3-2.4-1c-0.9-0.7-2.2-1.5-3.7-2.3c-1.5-0.9-3.4-1.6-5.6-2.3
		s-5-1-8.3-1c-4,0-7.6,0.7-10.9,2.1s-6.1,3.4-8.5,6c-2.4,2.6-4.2,5.8-5.6,9.6c-1.3,3.8-2,8-2,12.7c0,4.8,0.7,9.1,2.1,12.8
		s3.3,6.9,5.6,9.5c2.4,2.6,5.2,4.6,8.4,5.9c3.2,1.4,6.7,2,10.5,2c2.3,0,4.3-0.1,6.2-0.4c1.8-0.3,3.6-0.7,5.1-1.3
		c1.6-0.6,3-1.3,4.3-2.2s2.7-1.9,4-3.1C1046.6,1044.5,1047.2,1044.2,1047.8,1044.2z"/>
	<path id="XMLID_216_" class="st0" d="M1140.5,1021.7c0,5.8-0.9,11.1-2.7,15.9s-4.4,9-7.7,12.4s-7.3,6.2-12,8.1
		c-4.7,1.9-9.8,2.9-15.5,2.9s-10.8-1-15.5-2.9s-8.7-4.6-12-8.1c-3.3-3.5-5.9-7.6-7.7-12.4c-1.8-4.8-2.7-10.1-2.7-15.9
		c0-5.8,0.9-11.1,2.7-15.9c1.8-4.8,4.4-9,7.7-12.5c3.3-3.5,7.3-6.2,12-8.1c4.7-1.9,9.8-2.9,15.5-2.9s10.8,1,15.5,2.9
		c4.7,1.9,8.7,4.7,12,8.1s5.9,7.7,7.7,12.5C1139.6,1010.6,1140.5,1015.9,1140.5,1021.7z M1129.8,1021.7c0-4.7-0.7-9-1.9-12.7
		c-1.3-3.8-3.1-6.9-5.5-9.5c-2.4-2.6-5.2-4.6-8.6-6c-3.4-1.4-7.1-2.1-11.3-2.1c-4.1,0-7.9,0.7-11.2,2.1c-3.4,1.4-6.2,3.4-8.6,6
		s-4.2,5.8-5.5,9.5c-1.3,3.8-1.9,8-1.9,12.7c0,4.7,0.6,9,1.9,12.7c1.3,3.7,3.1,6.9,5.5,9.5s5.3,4.6,8.6,6c3.4,1.4,7.1,2.1,11.2,2.1
		c4.2,0,7.9-0.7,11.3-2.1c3.4-1.4,6.2-3.4,8.6-6c2.4-2.6,4.2-5.8,5.5-9.5C1129.2,1030.6,1129.8,1026.4,1129.8,1021.7z"/>
	<path id="XMLID_219_" class="st0" d="M1240.9,983.2v77h-9.1v-56.6c0-0.8,0-1.6,0.1-2.4c0.1-0.9,0.1-1.7,0.2-2.6l-26.4,48.1
		c-0.8,1.6-2.1,2.4-3.8,2.4h-1.5c-1.7,0-2.9-0.8-3.8-2.4l-27-48.3c0.2,1.9,0.3,3.7,0.3,5.3v56.6h-9.1v-77h7.7c0.9,0,1.7,0.1,2.2,0.3
		s1,0.7,1.4,1.5l26.6,47.4c0.4,0.9,0.8,1.8,1.3,2.7c0.4,0.9,0.8,1.9,1.2,2.8c0.4-1,0.7-1.9,1.1-2.9c0.4-0.9,0.8-1.8,1.3-2.7
		l26.1-47.3c0.4-0.8,0.9-1.3,1.4-1.5s1.2-0.3,2.2-0.3L1240.9,983.2L1240.9,983.2z"/>
	<path id="XMLID_221_" class="st0" d="M1288.7,983.2c4.9,0,9.1,0.6,12.7,1.7s6.6,2.7,8.9,4.8s4.1,4.6,5.3,7.5
		c1.2,2.9,1.8,6.2,1.8,9.8c0,3.6-0.6,6.9-1.9,9.8c-1.2,3-3.1,5.5-5.5,7.7c-2.4,2.2-5.4,3.8-9,5c-3.6,1.2-7.7,1.8-12.3,1.8h-12.4
		v28.8h-10.4v-77L1288.7,983.2L1288.7,983.2z M1288.7,1023.1c3,0,5.6-0.4,7.9-1.2c2.3-0.8,4.2-1.9,5.8-3.3c1.6-1.4,2.7-3.1,3.5-5.1
		c0.8-2,1.2-4.1,1.2-6.5c0-4.9-1.5-8.7-4.5-11.5s-7.6-4.1-13.8-4.1h-12.4v31.7L1288.7,1023.1L1288.7,1023.1z"/>
	<path id="XMLID_232_" class="st0" d="M1393.1,1060.1h-8.1c-0.9,0-1.7-0.2-2.3-0.7s-1-1.1-1.3-1.8l-7.2-18.6h-34.6l-7.2,18.6
		c-0.2,0.6-0.6,1.2-1.2,1.7s-1.4,0.8-2.3,0.8h-8.1l30.8-77h10.5L1393.1,1060.1z M1371.3,1031.6l-12.1-31.3c-0.4-0.9-0.7-2-1.1-3.2
		c-0.4-1.2-0.8-2.5-1.1-4c-0.8,2.9-1.5,5.3-2.3,7.3l-12.1,31.3L1371.3,1031.6L1371.3,1031.6z"/>
	<path id="XMLID_235_" class="st0" d="M1471,983.2v77h-5.2c-0.8,0-1.5-0.1-2.1-0.4c-0.6-0.3-1.1-0.8-1.6-1.4l-44.5-58
		c0.1,0.9,0.1,1.8,0.2,2.6c0,0.9,0.1,1.7,0.1,2.4v54.9h-9.1v-77h5.4c0.5,0,0.9,0,1.2,0.1c0.3,0,0.6,0.1,0.9,0.3s0.5,0.3,0.8,0.5
		c0.2,0.2,0.5,0.5,0.8,0.9l44.5,58c-0.1-0.9-0.1-1.8-0.2-2.7c-0.1-0.9-0.1-1.7-0.1-2.5v-54.5L1471,983.2L1471,983.2z"/>
	<path id="XMLID_237_" class="st0" d="M1524.9,1029.5v30.7h-10.4v-30.7l-28.2-46.3h9.1c0.9,0,1.7,0.2,2.2,0.7c0.5,0.5,1,1,1.4,1.8
		l17.6,29.9c0.7,1.3,1.2,2.4,1.8,3.5c0.5,1.1,1,2.2,1.4,3.3c0.4-1.1,0.8-2.2,1.3-3.3c0.5-1.1,1.1-2.3,1.7-3.5l17.6-29.9
		c0.3-0.6,0.8-1.2,1.3-1.7c0.6-0.5,1.3-0.8,2.2-0.8h9.2L1524.9,1029.5z"/>
</g>
</svg>
