<?xml version="1.0" encoding="utf-8"?>
<!-- Generator: Adobe Illustrator 24.3.0, SVG Export Plug-In . SVG Version: 6.00 Build 0)  -->
<svg version="1.1" id="Layer_1" xmlns="http://www.w3.org/2000/svg" xmlns:xlink="http://www.w3.org/1999/xlink" x="0px" y="0px"
	 viewBox="0 0 1920 1080" style="enable-background:new 0 0 1920 1080;" xml:space="preserve">
<style type="text/css">
	.st0{fill:#FFFFFF;}
	.st1{fill:#FFFFFF;stroke:#666666;stroke-width:1.0846;stroke-miterlimit:10;}
</style>
<g id="XMLID_155_">
	<g>
		<g id="XMLID_138_">
			<g>
				<path id="XMLID_145_" class="st0" d="M1119,469.8H811c-39.4,13.5-68.1,32.1-80.2,53.3h468.5
					C1187.1,501.9,1158.4,483.3,1119,469.8z"/>
				<g id="XMLID_143_">
					<polygon id="XMLID_144_" class="st0" points="868.8,317.9 965.5,221.2 1077.9,333 1133.4,317.9 965.5,150 797.6,317.9 					"/>
				</g>
				<g id="XMLID_141_">
					<polygon id="XMLID_142_" class="st0" points="1070.1,303.8 1070.1,450.6 858.9,450.6 858.9,352.7 808.5,352.7 808.5,501 
						1120.4,501 1120.4,303.8 					"/>
				</g>
				<rect id="XMLID_140_" x="839.5" y="225.6" class="st0" width="50.8" height="54.6"/>
				<path id="XMLID_139_" class="st0" d="M870.6,148.5c-12.8,18.6-35.5,18.1-35.5,41.8c0,23.7,40.3,24.8,40.3,51.9
					c9.8-44.7-16.9-39.8-16.9-53.7C858.5,174.6,870.6,167.8,870.6,148.5z"/>
			</g>
		</g>
		<g id="XMLID_137_">
			<polygon class="st0" points="727.7,497 717.2,479.1 807.5,425.9 829,425 818.1,443.8 			"/>
		</g>
		<g id="XMLID_136_">
			<polygon class="st0" points="1199.3,497 1209.9,479.1 1119.5,425.9 1098.1,425 1109,443.8 			"/>
		</g>
		<g id="XMLID_135_">
			<polygon class="st0" points="795,495.7 774.3,495.7 774.3,417.8 784.4,403.8 795,417.8 			"/>
		</g>
		<g id="XMLID_134_">
			<polygon class="st0" points="1175.8,520.2 1196.6,520.2 1196.6,442.3 1186.4,428.3 1175.8,442.3 			"/>
		</g>
		<g id="XMLID_133_">
			<polygon class="st0" points="1135,495.7 1155.7,495.7 1155.7,417.8 1145.6,403.8 1135,417.8 			"/>
		</g>
		<g id="XMLID_132_">
			<path class="st0" d="M1136.8,333.3c15.9,7.9,43.7,7.9,43.7,7.9c-21.8-7.9-47.6-47.6-47.6-47.6c11.9,6,31.7,0,31.7,0
				c-29.1-23.2-56.8-80.5-58.1-83.3v-0.1c0,0,0,0.1,0,0.1l0-0.1v0.1c-1.1,2.2-19.6,40.6-42.1,67.3c4.7,5.1,8,11.2,10.4,17.8
				c1.9-0.4,3.7-1,5.4-1.8c0,0-1.5,2.3-4,5.9c4.2,13.9,4.7,29.5,5.1,43.1c0.4,13.4,1.5,26.8,2.6,40.3l25.7,3.9
				c28.6,26.5,84.9-2,84.9-2C1174.5,377,1136.8,333.3,1136.8,333.3z"/>
		</g>
	</g>
</g>
<g id="XMLID_82_">
	<path id="XMLID_330_" class="st0" d="M106.5,704h65.1v77.3c-9.4,6.9-19.4,11.9-30,15c-10.6,3.1-21.7,4.7-33.2,4.7
		c-15.1,0-28.8-2.4-41.2-7.1s-22.9-11.3-31.7-19.6S19.9,756,15.2,744.5C10.4,733.1,8,720.7,8,707.3c0-13.7,2.3-26.2,6.8-37.7
		c4.5-11.4,11-21.3,19.4-29.6c8.4-8.3,18.6-14.7,30.6-19.4c11.9-4.6,25.3-6.9,40-6.9c7.6,0,14.8,0.6,21.5,1.9
		c6.7,1.3,12.9,3,18.5,5.2c5.6,2.2,10.8,4.8,15.5,7.8s8.9,6.3,12.6,9.8l-12.3,18.7c-1.9,2.9-4.4,4.7-7.5,5.4s-6.3-0.1-9.9-2.3
		c-3.4-2-6.5-3.8-9.5-5.2c-3-1.5-6-2.7-9.1-3.6c-3.1-0.9-6.4-1.6-9.8-2s-7.3-0.6-11.6-0.6c-8,0-15.1,1.4-21.5,4.2
		s-11.8,6.8-16.3,11.9s-7.9,11.2-10.4,18.4c-2.4,7.2-3.6,15.1-3.6,23.9c0,9.7,1.3,18.4,4,25.9c2.7,7.5,6.5,13.9,11.4,19.1
		c4.9,5.2,10.8,9.2,17.6,11.9c6.8,2.7,14.4,4.1,22.7,4.1c5.1,0,9.7-0.5,13.9-1.5c4.2-1,8.2-2.3,12.1-4v-27.8h-18.1
		c-2.7,0-4.8-0.7-6.3-2.1c-1.5-1.4-2.3-3.2-2.3-5.4L106.5,704L106.5,704z"/>
	<path id="XMLID_332_" class="st0" d="M361.7,798.9h-32.9c-3.7,0-6.7-0.9-8.9-2.6c-2.3-1.7-4-3.9-5.2-6.6l-10.8-31.9h-69.6
		l-10.8,31.9c-0.9,2.3-2.6,4.5-5,6.3s-5.3,2.8-8.9,2.8h-33.2l70.9-183.1h43.5L361.7,798.9z M294.2,728.9l-17-50.2
		c-1.3-3.2-2.6-6.9-4-11.2c-1.4-4.3-2.9-9-4.3-14c-1.3,5.1-2.6,9.8-4,14.2c-1.4,4.4-2.8,8.1-4,11.3l-16.8,49.9H294.2z"/>
	<path id="XMLID_335_" class="st0" d="M526,798.9h-38.5c-7.1,0-12.2-2.7-15.3-8l-30.4-53.2c-1.4-2.3-3-3.9-4.8-5s-4.3-1.6-7.5-1.6
		h-10.8v67.8h-42.5V615.8h59.6c13.2,0,24.5,1.4,33.9,4.1c9.3,2.7,17,6.5,22.9,11.4c5.9,4.9,10.2,10.6,12.9,17.2
		c2.7,6.6,4,13.8,4,21.6c0,6-0.8,11.6-2.4,16.8c-1.6,5.3-3.9,10.2-7,14.6c-3.1,4.5-6.9,8.5-11.5,12s-9.8,6.4-15.8,8.7
		c2.8,1.4,5.4,3.2,7.8,5.3c2.4,2.1,4.6,4.7,6.5,7.6L526,798.9z M435.8,701.9c5.8,0,10.7-0.7,14.8-2.2c4.1-1.5,7.4-3.5,10-6.1
		c2.6-2.6,4.5-5.6,5.6-9.1c1.2-3.5,1.8-7.2,1.8-11.2c0-8-2.6-14.3-7.9-18.9c-5.2-4.5-13.3-6.8-24.3-6.8h-17.1v54.3L435.8,701.9
		L435.8,701.9z"/>
	<path id="XMLID_360_" class="st0" d="M707.7,707.3c0,13.2-2.3,25.5-6.9,36.6c-4.6,11.2-11,20.9-19.3,29s-18.3,14.5-30,19.1
		s-24.7,6.8-38.9,6.8h-71.2V615.8h71.2c14.2,0,27.2,2.3,38.9,6.9s21.7,11,30,19.1c8.3,8.1,14.7,17.8,19.3,29
		C705.4,681.9,707.7,694.1,707.7,707.3z M664.2,707.3c0-9-1.2-17.2-3.5-24.5c-2.3-7.3-5.7-13.5-10.1-18.5s-9.8-9-16.2-11.7
		c-6.4-2.7-13.6-4.1-21.8-4.1h-28.4v117.8h28.4c8.1,0,15.4-1.4,21.8-4.1c6.4-2.7,11.8-6.6,16.2-11.7c4.4-5.1,7.8-11.2,10.1-18.5
		C663,724.6,664.2,716.4,664.2,707.3z"/>
	<path id="XMLID_363_" class="st0" d="M775.5,648.4v42.7h57.6v31.4h-57.6v43.6h75.2v32.7H732.8V615.8h117.9v32.7L775.5,648.4
		L775.5,648.4z"/>
	<path id="XMLID_365_" class="st0" d="M1036.8,615.8v183.2h-22.1c-3.3,0-6-0.5-8.2-1.6s-4.4-2.9-6.6-5.5l-86.4-109.2
		c0.3,3.3,0.6,6.4,0.7,9.5c0.1,3.1,0.2,5.9,0.2,8.6v98.2h-37.5V615.8h22.4c1.8,0,3.4,0.1,4.7,0.2s2.4,0.5,3.4,1s2,1.1,2.9,2
		c0.9,0.8,2,2,3.1,3.4l87.1,110c-0.4-3.5-0.7-6.9-0.9-10.2c-0.2-3.3-0.2-6.4-0.2-9.4v-96.9L1036.8,615.8L1036.8,615.8z"/>
	<path id="XMLID_367_" class="st0" d="M1232.1,615.8v183.2h-42.7v-77.4h-74.4v77.4h-42.7V615.8h42.7v76.6h74.4v-76.6H1232.1z"/>
	<path id="XMLID_369_" class="st0" d="M1447.3,707.3c0,13.2-2.3,25.6-6.8,37c-4.6,11.4-11,21.3-19.3,29.7c-8.3,8.4-18.3,15-30,19.8
		c-11.7,4.8-24.7,7.2-38.9,7.2c-14.2,0-27.2-2.4-39-7.2c-11.7-4.8-21.8-11.4-30.1-19.8c-8.3-8.4-14.8-18.3-19.4-29.7
		c-4.6-11.4-6.8-23.7-6.8-37c0-13.2,2.3-25.5,6.8-37s11-21.3,19.4-29.7c8.3-8.4,18.4-15,30.1-19.7c11.7-4.8,24.7-7.2,39-7.2
		c14.2,0,27.2,2.4,38.9,7.2c11.7,4.8,21.7,11.4,30,19.8c8.3,8.4,14.7,18.3,19.3,29.7C1445,681.8,1447.3,694.1,1447.3,707.3z
		 M1403.8,707.3c0-9-1.2-17.2-3.5-24.5c-2.3-7.2-5.7-13.4-10.1-18.4c-4.4-5-9.8-8.9-16.2-11.6c-6.4-2.7-13.6-4-21.8-4
		c-8.2,0-15.5,1.3-21.9,4c-6.4,2.7-11.8,6.5-16.2,11.6s-7.8,11.2-10.1,18.4s-3.5,15.4-3.5,24.5c0,9.1,1.2,17.3,3.5,24.6
		s5.7,13.4,10.1,18.4c4.4,5,9.8,8.9,16.2,11.5c6.4,2.6,13.7,4,21.9,4c8.1,0,15.4-1.3,21.8-4c6.4-2.6,11.8-6.5,16.2-11.5
		s7.8-11.2,10.1-18.4C1402.6,724.6,1403.8,716.4,1403.8,707.3z"/>
	<path id="XMLID_372_" class="st0" d="M1548.8,765.3c5.7,0,10.8-0.9,15.3-2.8c4.5-1.9,8.3-4.6,11.4-8.1c3.1-3.5,5.5-7.8,7.1-12.9
		s2.4-10.8,2.4-17.3V615.8h42.5v108.5c0,11.2-1.8,21.5-5.5,30.9c-3.6,9.4-8.9,17.5-15.7,24.3c-6.8,6.8-15,12.1-24.8,15.8
		c-9.7,3.8-20.7,5.7-32.8,5.7c-12.2,0-23.2-1.9-32.9-5.7c-9.7-3.8-18-9-24.8-15.8c-6.8-6.8-12-14.9-15.6-24.3
		c-3.6-9.4-5.4-19.7-5.4-30.9V615.8h42.5v108.3c0,6.5,0.8,12.2,2.4,17.3s4,9.4,7.1,13s6.9,6.3,11.4,8.2
		C1538,764.4,1543.1,765.3,1548.8,765.3z"/>
	<path id="XMLID_374_" class="st0" d="M1761.8,653c-1.3,2-2.6,3.5-4,4.5s-3.2,1.5-5.3,1.5c-1.9,0-4-0.6-6.2-1.8s-4.7-2.6-7.6-4.1
		c-2.8-1.5-6-2.9-9.6-4.1c-3.6-1.2-7.7-1.8-12.3-1.8c-8,0-13.9,1.7-17.8,5.1s-5.8,8-5.8,13.8c0,3.7,1.2,6.8,3.5,9.2s5.4,4.5,9.2,6.3
		c3.8,1.8,8.2,3.4,13.1,4.8c4.9,1.5,9.9,3.1,15,4.9c5.1,1.8,10.1,3.9,15,6.3c4.9,2.4,9.3,5.5,13.1,9.3c3.8,3.8,6.9,8.4,9.2,13.8
		s3.5,11.9,3.5,19.5c0,8.5-1.5,16.4-4.4,23.8c-2.9,7.4-7.2,13.8-12.8,19.3c-5.6,5.5-12.4,9.8-20.6,13c-8.2,3.1-17.4,4.7-27.8,4.7
		c-5.7,0-11.5-0.6-17.4-1.8c-5.9-1.2-11.6-2.8-17.2-5c-5.5-2.1-10.7-4.7-15.6-7.6c-4.9-2.9-9.1-6.2-12.7-9.8l12.6-19.9
		c1-1.4,2.3-2.6,4-3.6c1.6-1,3.4-1.5,5.3-1.5c2.5,0,5.1,0.8,7.6,2.4c2.6,1.6,5.4,3.3,8.7,5.3c3.2,1.9,6.9,3.7,11.1,5.3
		c4.2,1.6,9.1,2.4,14.8,2.4c7.7,0,13.7-1.7,18-5.1c4.3-3.4,6.4-8.8,6.4-16.2c0-4.3-1.2-7.8-3.5-10.4c-2.3-2.7-5.4-4.9-9.2-6.7
		c-3.8-1.8-8.2-3.3-13-4.7c-4.9-1.3-9.8-2.8-15-4.5c-5.1-1.6-10.1-3.7-15-6c-4.9-2.4-9.2-5.5-13-9.4c-3.8-3.9-6.9-8.8-9.2-14.6
		s-3.5-13-3.5-21.6c0-6.9,1.4-13.6,4.2-20.1c2.8-6.5,6.8-12.4,12.2-17.5c5.4-5.1,11.9-9.2,19.7-12.3c7.8-3,16.7-4.6,26.8-4.6
		c5.6,0,11.1,0.4,16.4,1.3c5.3,0.9,10.4,2.2,15.2,3.9c4.8,1.7,9.2,3.8,13.4,6.2c4.1,2.4,7.9,5.1,11.1,8.1L1761.8,653z"/>
	<path id="XMLID_376_" class="st0" d="M1842.6,648.4v42.7h57.6v31.4h-57.6v43.6h75.2v32.7h-117.9V615.8h117.9v32.7L1842.6,648.4
		L1842.6,648.4z"/>
</g>
<g id="XMLID_83_">
	<path id="XMLID_378_" class="st0" d="M71.3,904.4v6.9H37v-60.4h8.1v53.5L71.3,904.4L71.3,904.4z"/>
	<path id="XMLID_380_" class="st0" d="M133.6,911.3h-6.3c-0.7,0-1.3-0.2-1.8-0.5c-0.4-0.4-0.8-0.8-1-1.4l-5.7-14.6H91.8l-5.7,14.6
		c-0.2,0.5-0.5,1-1,1.3c-0.5,0.4-1.1,0.6-1.8,0.6h-6.3l24.2-60.4h8.3L133.6,911.3z M116.6,888.9l-9.5-24.6c-0.3-0.7-0.6-1.6-0.9-2.5
		s-0.6-2-0.9-3.1c-0.6,2.3-1.2,4.2-1.8,5.7L94,888.9L116.6,888.9L116.6,888.9z"/>
	<path id="XMLID_383_" class="st0" d="M194.8,850.9v60.4h-4.1c-0.6,0-1.2-0.1-1.6-0.3c-0.4-0.2-0.9-0.6-1.3-1.1l-34.9-45.5
		c0.1,0.7,0.1,1.4,0.1,2.1c0,0.7,0,1.3,0,1.9v43h-7.2v-60.4h4.2c0.4,0,0.7,0,0.9,0.1c0.2,0,0.5,0.1,0.7,0.2c0.2,0.1,0.4,0.2,0.6,0.4
		s0.4,0.4,0.6,0.7l34.9,45.5c-0.1-0.7-0.1-1.4-0.1-2.1c0-0.7-0.1-1.3-0.1-2v-42.8L194.8,850.9L194.8,850.9z"/>
	<path id="XMLID_385_" class="st0" d="M266.7,881.1c0,4.5-0.7,8.6-2.1,12.3c-1.4,3.7-3.5,6.9-6.1,9.5s-5.8,4.7-9.4,6.1
		c-3.7,1.5-7.7,2.2-12.2,2.2h-22.6v-60.4h22.6c4.4,0,8.5,0.7,12.2,2.2s6.8,3.5,9.4,6.2c2.6,2.7,4.6,5.8,6.1,9.5
		C266,872.5,266.7,876.6,266.7,881.1z M258.4,881.1c0-3.7-0.5-7-1.5-10c-1-2.9-2.4-5.4-4.3-7.4c-1.9-2-4.1-3.6-6.7-4.6
		s-5.6-1.6-8.9-1.6h-14.4v47.2h14.4c3.3,0,6.2-0.5,8.9-1.6c2.6-1.1,4.9-2.6,6.7-4.6c1.9-2,3.3-4.5,4.3-7.4
		C257.9,888.2,258.4,884.8,258.4,881.1z"/>
	<path id="XMLID_388_" class="st0" d="M313.6,860.3c-0.2,0.4-0.5,0.7-0.8,1c-0.3,0.2-0.6,0.3-1.1,0.3c-0.5,0-1-0.2-1.7-0.7
		c-0.6-0.5-1.5-1-2.4-1.6c-1-0.6-2.1-1.1-3.5-1.6c-1.4-0.5-3-0.7-5-0.7c-1.8,0-3.4,0.2-4.8,0.7c-1.4,0.5-2.6,1.2-3.5,2
		s-1.6,1.8-2.1,3c-0.5,1.1-0.7,2.4-0.7,3.7c0,1.7,0.4,3.1,1.2,4.2c0.8,1.1,1.9,2.1,3.3,2.8c1.4,0.8,2.9,1.5,4.6,2
		c1.7,0.6,3.5,1.2,5.3,1.8c1.8,0.6,3.6,1.3,5.3,2.1s3.3,1.8,4.6,2.9c1.4,1.2,2.5,2.6,3.3,4.3c0.8,1.7,1.2,3.8,1.2,6.3
		c0,2.6-0.5,5.1-1.4,7.4c-0.9,2.3-2.2,4.3-3.9,6c-1.7,1.7-3.9,3.1-6.4,4c-2.5,1-5.4,1.5-8.6,1.5c-3.9,0-7.5-0.7-10.7-2.1
		c-3.2-1.4-5.9-3.3-8.2-5.8l2.4-3.9c0.2-0.3,0.5-0.6,0.8-0.8s0.7-0.3,1.1-0.3c0.4,0,0.8,0.2,1.2,0.4c0.5,0.3,1,0.7,1.6,1.1
		s1.3,0.9,2,1.5c0.8,0.5,1.6,1,2.6,1.5c1,0.5,2.1,0.8,3.3,1.1c1.2,0.3,2.6,0.4,4.2,0.4c1.9,0,3.7-0.3,5.2-0.8
		c1.5-0.5,2.8-1.3,3.9-2.2c1.1-1,1.9-2.1,2.4-3.5c0.6-1.3,0.9-2.8,0.9-4.5c0-1.8-0.4-3.3-1.2-4.5s-1.9-2.1-3.3-2.9
		c-1.4-0.8-2.9-1.5-4.6-2c-1.8-0.5-3.5-1.1-5.3-1.7c-1.8-0.6-3.6-1.2-5.3-2s-3.3-1.7-4.6-3c-1.4-1.2-2.4-2.7-3.3-4.5
		c-0.8-1.8-1.2-4-1.2-6.7c0-2.1,0.4-4.2,1.2-6.2s2-3.8,3.6-5.3c1.6-1.5,3.5-2.8,5.9-3.7c2.3-0.9,5-1.4,8-1.4c3.4,0,6.5,0.5,9.2,1.6
		c2.8,1.1,5.2,2.6,7.3,4.6L313.6,860.3z"/>
	<path id="XMLID_390_" class="st0" d="M375.1,898.8c0.5,0,0.9,0.2,1.2,0.5l3.2,3.5c-2.5,2.9-5.5,5.1-9,6.7
		c-3.5,1.6-7.8,2.4-12.8,2.4c-4.3,0-8.3-0.8-11.8-2.3c-3.5-1.5-6.6-3.6-9.1-6.3s-4.4-6-5.8-9.8c-1.4-3.8-2.1-8-2.1-12.5
		c0-4.5,0.7-8.7,2.1-12.5c1.4-3.8,3.5-7,6-9.8c2.6-2.7,5.7-4.8,9.3-6.3c3.6-1.5,7.6-2.3,12-2.3c4.3,0,8.1,0.7,11.4,2.1
		c3.3,1.4,6.2,3.2,8.7,5.6l-2.7,3.8c-0.2,0.3-0.4,0.5-0.6,0.7c-0.3,0.2-0.6,0.3-1.1,0.3c-0.5,0-1.1-0.3-1.9-0.8
		c-0.7-0.5-1.7-1.2-2.9-1.8c-1.2-0.7-2.6-1.3-4.4-1.8c-1.8-0.5-4-0.8-6.5-0.8c-3.1,0-6,0.5-8.6,1.6s-4.8,2.7-6.7,4.7
		s-3.3,4.5-4.4,7.5c-1,3-1.6,6.3-1.6,10c0,3.8,0.5,7.1,1.6,10.1s2.6,5.5,4.4,7.5c1.9,2,4.1,3.6,6.6,4.7c2.5,1.1,5.3,1.6,8.2,1.6
		c1.8,0,3.4-0.1,4.9-0.3c1.5-0.2,2.8-0.5,4-1c1.2-0.5,2.4-1,3.4-1.7c1.1-0.7,2.1-1.5,3.1-2.5C374.1,899,374.6,898.8,375.1,898.8z"/>
	<path id="XMLID_392_" class="st0" d="M442.3,911.3H436c-0.7,0-1.3-0.2-1.8-0.5c-0.5-0.4-0.8-0.8-1-1.4l-5.6-14.6h-27.1l-5.6,14.6
		c-0.2,0.5-0.5,1-1,1.3c-0.5,0.4-1.1,0.6-1.8,0.6h-6.3l24.1-60.4h8.3L442.3,911.3z M425.3,888.9l-9.5-24.6c-0.3-0.7-0.6-1.6-0.9-2.5
		c-0.3-1-0.6-2-0.9-3.1c-0.6,2.3-1.2,4.2-1.8,5.7l-9.5,24.5L425.3,888.9L425.3,888.9z"/>
	<path id="XMLID_395_" class="st0" d="M472.3,850.9c3.8,0,7.1,0.4,10,1.3c2.8,0.9,5.2,2.1,7,3.8c1.9,1.6,3.2,3.6,4.1,5.9
		c0.9,2.3,1.4,4.9,1.4,7.7c0,2.8-0.5,5.4-1.5,7.7c-1,2.3-2.4,4.3-4.3,6c-1.9,1.7-4.2,3-7,3.9c-2.8,0.9-6,1.4-9.7,1.4h-9.7v22.6h-8.1
		v-60.4L472.3,850.9L472.3,850.9z M472.3,882.2c2.3,0,4.4-0.3,6.2-0.9c1.8-0.6,3.3-1.5,4.5-2.6c1.2-1.1,2.1-2.4,2.8-4
		c0.6-1.5,0.9-3.2,0.9-5.1c0-3.8-1.2-6.9-3.6-9c-2.4-2.2-6-3.2-10.8-3.2h-9.7v24.9H472.3z"/>
	<path id="XMLID_398_" class="st0" d="M517.5,911.3h-8.2v-60.4h8.2V911.3z"/>
	<path id="XMLID_400_" class="st0" d="M586.1,850.9v60.4H582c-0.7,0-1.2-0.1-1.6-0.3c-0.4-0.2-0.9-0.6-1.3-1.1l-34.9-45.5
		c0.1,0.7,0.1,1.4,0.1,2.1c0,0.7,0,1.3,0,1.9v43h-7.2v-60.4h4.2c0.4,0,0.7,0,0.9,0.1c0.2,0,0.5,0.1,0.7,0.2c0.2,0.1,0.4,0.2,0.6,0.4
		s0.4,0.4,0.6,0.7l35,45.5c-0.1-0.7-0.1-1.4-0.2-2.1c0-0.7-0.1-1.3-0.1-2v-42.8L586.1,850.9L586.1,850.9z"/>
	<path id="XMLID_402_" class="st0" d="M654.8,882.3v23.2c-3,2.2-6.3,3.8-9.7,4.9c-3.4,1.1-7.2,1.6-11.3,1.6c-4.9,0-9.2-0.8-13.2-2.3
		c-3.9-1.5-7.2-3.6-10-6.3c-2.8-2.7-4.9-6-6.4-9.8c-1.5-3.8-2.2-8-2.2-12.5c0-4.6,0.7-8.8,2.2-12.6c1.4-3.8,3.5-7,6.2-9.8
		s5.9-4.8,9.7-6.3c3.8-1.5,8.1-2.2,12.8-2.2c2.4,0,4.6,0.2,6.7,0.5c2,0.3,4,0.9,5.7,1.5c1.7,0.7,3.3,1.5,4.8,2.4
		c1.5,0.9,2.9,2,4.2,3.2l-2.3,3.7c-0.4,0.6-0.8,0.9-1.4,1.1c-0.6,0.2-1.2,0-1.9-0.4c-0.7-0.4-1.5-0.9-2.3-1.4s-1.9-1.1-3.2-1.6
		s-2.7-1-4.4-1.3c-1.7-0.4-3.7-0.5-6-0.5c-3.4,0-6.5,0.5-9.2,1.7c-2.8,1.1-5.1,2.7-7,4.8c-1.9,2.1-3.4,4.6-4.5,7.5s-1.6,6.2-1.6,9.9
		c0,3.8,0.5,7.2,1.6,10.2s2.6,5.5,4.6,7.6c2,2.1,4.5,3.7,7.3,4.8c2.9,1.1,6.1,1.6,9.7,1.6c2.8,0,5.3-0.3,7.5-1s4.3-1.5,6.4-2.6
		v-13.3H638c-0.5,0-1-0.2-1.3-0.5c-0.3-0.3-0.5-0.7-0.5-1.1v-4.6L654.8,882.3L654.8,882.3z"/>
</g>
<line id="XMLID_86_" class="st1" x1="727.9" y1="878.5" x2="1921" y2="878.5"/>
</svg>
