<?xml version="1.0" encoding="utf-8"?>
<!-- Generator: Adobe Illustrator 24.3.0, SVG Export Plug-In . SVG Version: 6.00 Build 0)  -->
<svg version="1.1" id="Layer_1" xmlns="http://www.w3.org/2000/svg" xmlns:xlink="http://www.w3.org/1999/xlink" x="0px" y="0px"
	 viewBox="0 0 499 500" style="enable-background:new 0 0 499 500;" xml:space="preserve">
<style type="text/css">
	.st0{fill:none;}
	.st1{fill:#FFFFFF;stroke:#000000;stroke-width:0.75;stroke-miterlimit:10;}
</style>
<g id="Layer_1_1_">
	<rect x="-250.3" y="-325.1" class="st0" width="1081" height="1083.6"/>
	<path class="st1" d="M237.6,58c-64.4,0-117,14.7-152.1,26.4v228l-62.9,35.9c0-20.5,0-41.8,0-62.3c0-25.7,0-51.3,0-77
		c0-36.7,0-73.3,0-110c0-30.1-3.7-33.7,0-41.8c9.5-23.5,39.5-33,109-41.8c94.3-11,149.2-17.6,226.7,0c46.1,11,83.4,26.4,109,38.9
		V176l-43.2,16.1c-8.8,5.1-8.8,5.1-8.8,5.1v-110C416,88.8,312.9,58,237.6,58z"/>
	<polygon class="st1" points="121.3,124 121.3,319 26.9,374 249.3,497.9 466.5,379.1 466.5,204.7 306.3,277.2 307.8,341.8 
		407.3,289.7 407.3,344.7 249.3,432.7 134.5,366 176.9,349.1 176.9,204.7 242,251.6 304.9,212 306.3,248.6 364.9,218.6 364.9,124 
		247.1,191.5 	"/>
</g>
</svg>
