<?xml version="1.0" encoding="utf-8"?>
<!-- Generator: Adobe Illustrator 24.3.0, SVG Export Plug-In . SVG Version: 6.00 Build 0)  -->
<svg version="1.1" id="Objects" xmlns="http://www.w3.org/2000/svg" xmlns:xlink="http://www.w3.org/1999/xlink" x="0px" y="0px"
	 viewBox="0 0 800 800" style="enable-background:new 0 0 800 800;" xml:space="preserve">
<style type="text/css">
	.st0{fill:#231F20;stroke:#231F20;stroke-miterlimit:10;}
</style>
<g id="XMLID_404_">
	<g id="XMLID_15_">
		<g id="XMLID_29_">
			<g id="XMLID_33_">
				<polygon id="XMLID_34_" class="st0" points="377.57,361.13 396.96,341.73 416.36,361.13 430.65,361.13 396.96,327.44 
					363.28,361.13 				"/>
			</g>
			<g id="XMLID_31_">
				<polygon id="XMLID_32_" class="st0" points="417.95,368.11 417.95,387.76 375.57,387.76 375.57,368.11 365.47,368.11 
					365.47,397.86 428.05,397.86 428.05,368.11 				"/>
			</g>
			<rect id="XMLID_30_" x="371.7" y="342.62" class="st0" width="10.2" height="10.95"/>
		</g>
		<g id="XMLID_1_">
			<path id="XMLID_2_" class="st0" d="M284.88,419.47v29.6h-6.91v-12.52h-12.03v12.52h-6.91v-29.6h6.91v12.37h12.03v-12.37H284.88z"
				/>
			<path id="XMLID_28_" class="st0" d="M319.67,434.26c0,2.14-0.37,4.13-1.11,5.97c-0.74,1.84-1.78,3.44-3.12,4.81
				c-1.34,1.36-2.96,2.43-4.85,3.2c-1.89,0.77-3.99,1.16-6.29,1.16c-2.3,0-4.4-0.39-6.3-1.16c-1.9-0.77-3.52-1.84-4.87-3.2
				c-1.35-1.36-2.39-2.96-3.13-4.81c-0.74-1.84-1.11-3.83-1.11-5.97c0-2.14,0.37-4.13,1.11-5.97c0.74-1.84,1.78-3.44,3.13-4.79
				c1.35-1.35,2.97-2.42,4.87-3.19c1.9-0.77,4-1.16,6.3-1.16c2.3,0,4.4,0.39,6.29,1.17c1.89,0.78,3.5,1.85,4.85,3.2
				c1.34,1.35,2.38,2.95,3.12,4.79C319.3,430.15,319.67,432.13,319.67,434.26z M312.64,434.26c0-1.46-0.19-2.78-0.57-3.95
				c-0.38-1.17-0.92-2.16-1.64-2.98c-0.71-0.81-1.58-1.44-2.61-1.87s-2.2-0.65-3.51-0.65c-1.33,0-2.51,0.22-3.55,0.65
				c-1.04,0.43-1.91,1.06-2.62,1.87c-0.71,0.81-1.26,1.81-1.64,2.98c-0.38,1.17-0.57,2.49-0.57,3.95c0,1.48,0.19,2.8,0.57,3.97
				c0.38,1.17,0.92,2.16,1.64,2.98c0.71,0.81,1.58,1.43,2.62,1.86c1.04,0.43,2.22,0.64,3.55,0.64c1.31,0,2.49-0.21,3.51-0.64
				c1.03-0.43,1.9-1.05,2.61-1.86c0.71-0.81,1.26-1.8,1.64-2.98C312.45,437.06,312.64,435.73,312.64,434.26z"/>
			<path id="XMLID_45_" class="st0" d="M336.06,443.64c0.92,0,1.74-0.15,2.47-0.46c0.72-0.3,1.34-0.74,1.84-1.31
				c0.5-0.57,0.88-1.26,1.15-2.08c0.26-0.82,0.4-1.75,0.4-2.79v-17.53h6.87V437c0,1.82-0.29,3.48-0.88,5
				c-0.59,1.52-1.43,2.82-2.53,3.92c-1.1,1.1-2.43,1.95-4,2.56c-1.57,0.61-3.34,0.91-5.3,0.91c-1.98,0-3.75-0.3-5.32-0.91
				c-1.57-0.61-2.91-1.46-4-2.56c-1.1-1.1-1.94-2.4-2.52-3.92c-0.58-1.52-0.87-3.18-0.87-5v-17.53h6.87v17.51
				c0,1.04,0.13,1.97,0.4,2.79c0.26,0.82,0.65,1.52,1.15,2.09c0.5,0.58,1.11,1.02,1.84,1.32
				C334.32,443.49,335.14,443.64,336.06,443.64z"/>
			<path id="XMLID_49_" class="st0" d="M370.5,425.48c-0.2,0.33-0.42,0.57-0.64,0.73c-0.22,0.16-0.51,0.24-0.86,0.24
				c-0.31,0-0.65-0.1-1.01-0.29c-0.36-0.2-0.77-0.42-1.22-0.66c-0.45-0.24-0.97-0.46-1.55-0.66c-0.58-0.2-1.25-0.29-1.99-0.29
				c-1.29,0-2.25,0.27-2.88,0.82c-0.63,0.55-0.94,1.29-0.94,2.23c0,0.6,0.19,1.09,0.57,1.48c0.38,0.39,0.88,0.73,1.49,1.02
				c0.62,0.28,1.32,0.55,2.11,0.78c0.79,0.24,1.6,0.5,2.43,0.79c0.83,0.29,1.64,0.63,2.43,1.03c0.79,0.39,1.5,0.89,2.11,1.5
				c0.62,0.61,1.11,1.35,1.49,2.22c0.38,0.87,0.57,1.93,0.57,3.16c0,1.37-0.24,2.65-0.71,3.84c-0.47,1.19-1.16,2.23-2.06,3.12
				c-0.9,0.89-2.01,1.58-3.33,2.09c-1.32,0.51-2.82,0.76-4.5,0.76c-0.92,0-1.86-0.1-2.81-0.28c-0.95-0.19-1.88-0.46-2.77-0.8
				c-0.89-0.35-1.73-0.75-2.52-1.23c-0.79-0.47-1.47-1-2.05-1.58l2.03-3.21c0.16-0.23,0.38-0.42,0.64-0.58
				c0.26-0.16,0.55-0.23,0.86-0.23c0.41,0,0.82,0.13,1.23,0.39c0.41,0.26,0.88,0.54,1.4,0.85c0.52,0.31,1.12,0.6,1.8,0.85
				c0.68,0.26,1.48,0.39,2.4,0.39c1.25,0,2.21-0.27,2.91-0.82c0.69-0.55,1.04-1.42,1.04-2.61c0-0.69-0.19-1.25-0.57-1.69
				c-0.38-0.43-0.88-0.79-1.49-1.08c-0.62-0.28-1.32-0.54-2.1-0.75c-0.79-0.22-1.59-0.46-2.42-0.72c-0.83-0.26-1.63-0.59-2.42-0.98
				c-0.79-0.39-1.49-0.89-2.1-1.52c-0.62-0.63-1.11-1.42-1.49-2.36c-0.38-0.94-0.57-2.1-0.57-3.48c0-1.11,0.22-2.19,0.67-3.25
				c0.45-1.06,1.1-2,1.97-2.82c0.87-0.83,1.93-1.49,3.19-1.98c1.26-0.49,2.7-0.74,4.33-0.74c0.91,0,1.79,0.07,2.65,0.21
				c0.86,0.14,1.68,0.35,2.45,0.63c0.77,0.28,1.49,0.61,2.16,1c0.67,0.39,1.27,0.82,1.8,1.31L370.5,425.48z"/>
			<path id="XMLID_53_" class="st0" d="M383.57,424.75v6.91h9.31v5.08h-9.31v7.05h12.15v5.28h-19.06v-29.6h19.06v5.28H383.57z"/>
			<path id="XMLID_57_" class="st0" d="M416.3,425.48c-0.2,0.33-0.42,0.57-0.64,0.73c-0.22,0.16-0.51,0.24-0.86,0.24
				c-0.31,0-0.65-0.1-1.01-0.29c-0.36-0.2-0.77-0.42-1.22-0.66c-0.45-0.24-0.97-0.46-1.55-0.66c-0.58-0.2-1.25-0.29-1.99-0.29
				c-1.29,0-2.25,0.27-2.88,0.82c-0.63,0.55-0.94,1.29-0.94,2.23c0,0.6,0.19,1.09,0.57,1.48c0.38,0.39,0.88,0.73,1.49,1.02
				c0.62,0.28,1.32,0.55,2.11,0.78c0.79,0.24,1.6,0.5,2.43,0.79c0.83,0.29,1.64,0.63,2.43,1.03c0.79,0.39,1.5,0.89,2.11,1.5
				c0.62,0.61,1.11,1.35,1.49,2.22c0.38,0.87,0.57,1.93,0.57,3.16c0,1.37-0.24,2.65-0.71,3.84c-0.47,1.19-1.16,2.23-2.06,3.12
				c-0.9,0.89-2.01,1.58-3.33,2.09c-1.32,0.51-2.82,0.76-4.5,0.76c-0.92,0-1.86-0.1-2.81-0.28c-0.95-0.19-1.88-0.46-2.77-0.8
				c-0.89-0.35-1.73-0.75-2.52-1.23c-0.79-0.47-1.47-1-2.05-1.58l2.03-3.21c0.16-0.23,0.38-0.42,0.64-0.58
				c0.26-0.16,0.55-0.23,0.86-0.23c0.41,0,0.82,0.13,1.23,0.39c0.41,0.26,0.88,0.54,1.4,0.85c0.52,0.31,1.12,0.6,1.8,0.85
				c0.68,0.26,1.48,0.39,2.4,0.39c1.25,0,2.21-0.27,2.91-0.82c0.69-0.55,1.04-1.42,1.04-2.61c0-0.69-0.19-1.25-0.57-1.69
				c-0.38-0.43-0.88-0.79-1.49-1.08c-0.62-0.28-1.32-0.54-2.1-0.75c-0.79-0.22-1.59-0.46-2.42-0.72c-0.83-0.26-1.63-0.59-2.42-0.98
				c-0.79-0.39-1.49-0.89-2.1-1.52c-0.62-0.63-1.11-1.42-1.49-2.36c-0.38-0.94-0.57-2.1-0.57-3.48c0-1.11,0.22-2.19,0.67-3.25
				c0.45-1.06,1.1-2,1.97-2.82c0.87-0.83,1.93-1.49,3.19-1.98c1.26-0.49,2.7-0.74,4.33-0.74c0.91,0,1.79,0.07,2.65,0.21
				c0.86,0.14,1.68,0.35,2.45,0.63c0.77,0.28,1.49,0.61,2.16,1c0.67,0.39,1.27,0.82,1.8,1.31L416.3,425.48z"/>
			<path id="XMLID_95_" class="st0" d="M455.73,419.47v29.6h-6.05v-17.03c0-0.39,0.01-0.82,0.03-1.28c0.02-0.46,0.06-0.93,0.11-1.4
				l-7.86,15.22c-0.24,0.47-0.57,0.83-0.99,1.08c-0.41,0.24-0.88,0.37-1.41,0.37h-0.93c-0.53,0-1-0.12-1.41-0.37
				c-0.41-0.24-0.74-0.6-0.99-1.08l-7.86-15.26c0.04,0.49,0.07,0.96,0.1,1.43c0.03,0.47,0.04,0.9,0.04,1.29v17.03h-6.05v-29.6h5.24
				c0.3,0,0.56,0.01,0.78,0.02c0.22,0.01,0.42,0.05,0.6,0.12c0.18,0.07,0.34,0.17,0.48,0.31c0.14,0.14,0.28,0.34,0.42,0.6
				l7.62,15.01c0.27,0.52,0.53,1.05,0.78,1.61c0.25,0.56,0.49,1.12,0.72,1.71c0.23-0.6,0.47-1.18,0.72-1.75
				c0.25-0.57,0.52-1.11,0.8-1.62l7.6-14.95c0.14-0.26,0.27-0.46,0.42-0.6c0.14-0.14,0.3-0.25,0.48-0.31
				c0.18-0.07,0.38-0.11,0.6-0.12c0.22-0.01,0.48-0.02,0.78-0.02H455.73z"/>
			<path id="XMLID_103_" class="st0" d="M488.02,449.07h-5.32c-0.6,0-1.08-0.14-1.44-0.42c-0.37-0.28-0.64-0.63-0.83-1.07
				l-1.75-5.16h-11.26l-1.75,5.16c-0.15,0.38-0.42,0.72-0.8,1.03c-0.39,0.3-0.86,0.46-1.43,0.46h-5.36l11.46-29.6h7.03
				L488.02,449.07z M477.11,437.75l-2.74-8.11c-0.2-0.51-0.42-1.12-0.65-1.82c-0.23-0.7-0.46-1.45-0.69-2.27
				c-0.2,0.83-0.42,1.59-0.65,2.3c-0.23,0.7-0.45,1.31-0.65,1.83l-2.72,8.07H477.11z"/>
			<path id="XMLID_107_" class="st0" d="M514.57,449.07h-6.22c-1.15,0-1.98-0.43-2.48-1.3l-4.92-8.59c-0.23-0.37-0.49-0.63-0.77-0.8
				c-0.28-0.17-0.69-0.25-1.22-0.25h-1.75v10.95h-6.87v-29.6h9.63c2.14,0,3.97,0.22,5.48,0.66c1.51,0.44,2.74,1.05,3.7,1.84
				c0.95,0.79,1.65,1.71,2.08,2.78c0.43,1.07,0.65,2.23,0.65,3.49c0,0.96-0.13,1.87-0.39,2.72c-0.26,0.85-0.64,1.64-1.14,2.37
				c-0.5,0.72-1.12,1.37-1.86,1.94c-0.74,0.57-1.59,1.04-2.55,1.4c0.45,0.23,0.87,0.52,1.26,0.86c0.39,0.35,0.74,0.76,1.06,1.23
				L514.57,449.07z M499.98,433.38c0.94,0,1.73-0.12,2.39-0.36c0.66-0.24,1.2-0.57,1.62-0.99c0.42-0.42,0.72-0.91,0.91-1.47
				c0.19-0.56,0.28-1.17,0.28-1.82c0-1.3-0.42-2.32-1.27-3.05c-0.85-0.73-2.16-1.1-3.93-1.1h-2.76v8.78H499.98z"/>
			<path id="XMLID_128_" class="st0" d="M537.75,424.91h-8.33v24.16h-6.87v-24.16h-8.33v-5.44h23.53V424.91z"/>
		</g>
		<g id="XMLID_13_">
			<path id="XMLID_130_" class="st0" d="M312.76,464.68c-0.04,0.07-0.09,0.12-0.13,0.15c-0.05,0.03-0.11,0.05-0.17,0.05
				c-0.08,0-0.17-0.04-0.27-0.12c-0.1-0.08-0.24-0.16-0.39-0.26c-0.16-0.09-0.35-0.18-0.57-0.26c-0.22-0.08-0.49-0.12-0.8-0.12
				c-0.3,0-0.56,0.04-0.78,0.12c-0.22,0.08-0.41,0.19-0.57,0.32c-0.15,0.14-0.27,0.3-0.34,0.48c-0.08,0.18-0.12,0.38-0.12,0.6
				c0,0.27,0.07,0.5,0.2,0.68c0.13,0.18,0.31,0.33,0.53,0.46c0.22,0.13,0.47,0.24,0.75,0.33c0.28,0.09,0.57,0.19,0.86,0.29
				c0.29,0.1,0.58,0.21,0.86,0.34s0.53,0.28,0.75,0.47c0.22,0.19,0.4,0.42,0.53,0.7c0.13,0.28,0.2,0.62,0.2,1.02
				c0,0.43-0.07,0.83-0.22,1.2c-0.15,0.38-0.36,0.7-0.64,0.98c-0.28,0.28-0.62,0.5-1.03,0.65c-0.41,0.16-0.87,0.24-1.39,0.24
				c-0.64,0-1.21-0.11-1.73-0.34c-0.52-0.23-0.96-0.54-1.33-0.93l0.38-0.63c0.04-0.05,0.08-0.09,0.13-0.13
				c0.05-0.03,0.11-0.05,0.17-0.05c0.06,0,0.13,0.02,0.2,0.07c0.07,0.05,0.16,0.11,0.26,0.18c0.1,0.07,0.2,0.15,0.33,0.24
				c0.12,0.09,0.26,0.17,0.42,0.24c0.16,0.07,0.33,0.13,0.53,0.18c0.2,0.05,0.42,0.07,0.67,0.07c0.31,0,0.59-0.04,0.84-0.13
				c0.25-0.09,0.45-0.21,0.62-0.36c0.17-0.16,0.3-0.34,0.39-0.56c0.09-0.22,0.14-0.46,0.14-0.73c0-0.3-0.07-0.54-0.2-0.73
				c-0.13-0.19-0.31-0.35-0.53-0.47c-0.22-0.13-0.47-0.23-0.75-0.32c-0.28-0.09-0.57-0.18-0.86-0.27c-0.29-0.09-0.58-0.2-0.86-0.32
				c-0.28-0.12-0.53-0.28-0.75-0.48c-0.22-0.2-0.39-0.44-0.53-0.73c-0.13-0.29-0.2-0.65-0.2-1.09c0-0.35,0.07-0.68,0.2-1
				c0.13-0.32,0.33-0.61,0.59-0.86c0.26-0.25,0.57-0.45,0.95-0.6c0.37-0.15,0.81-0.23,1.29-0.23c0.54,0,1.04,0.09,1.49,0.26
				c0.45,0.17,0.84,0.42,1.18,0.75L312.76,464.68z"/>
			<path id="XMLID_132_" class="st0" d="M324.86,468.04c0,0.73-0.12,1.4-0.35,2.01c-0.23,0.61-0.56,1.14-0.98,1.58
				c-0.42,0.44-0.93,0.78-1.52,1.03c-0.59,0.24-1.25,0.36-1.97,0.36c-0.72,0-1.37-0.12-1.96-0.36c-0.59-0.24-1.1-0.58-1.52-1.03
				c-0.42-0.44-0.75-0.97-0.98-1.58c-0.23-0.61-0.35-1.28-0.35-2.01c0-0.73,0.12-1.4,0.35-2.01c0.23-0.61,0.56-1.14,0.98-1.58
				c0.42-0.44,0.93-0.79,1.52-1.03c0.59-0.25,1.24-0.37,1.96-0.37c0.72,0,1.37,0.12,1.97,0.37c0.59,0.25,1.1,0.59,1.52,1.03
				c0.42,0.44,0.75,0.97,0.98,1.58C324.75,466.63,324.86,467.31,324.86,468.04z M323.51,468.04c0-0.6-0.08-1.14-0.25-1.61
				c-0.16-0.48-0.4-0.88-0.69-1.21c-0.3-0.33-0.66-0.58-1.09-0.76c-0.43-0.18-0.9-0.27-1.43-0.27c-0.52,0-1,0.09-1.42,0.27
				c-0.43,0.18-0.79,0.43-1.09,0.76c-0.3,0.33-0.54,0.73-0.7,1.21c-0.16,0.48-0.25,1.02-0.25,1.61c0,0.6,0.08,1.14,0.25,1.61
				c0.16,0.47,0.4,0.88,0.7,1.21c0.3,0.33,0.67,0.58,1.09,0.76c0.43,0.17,0.9,0.26,1.42,0.26c0.53,0,1-0.09,1.43-0.26
				c0.43-0.17,0.79-0.43,1.09-0.76c0.3-0.33,0.53-0.73,0.69-1.21C323.42,469.17,323.51,468.64,323.51,468.04z"/>
			<path id="XMLID_135_" class="st0" d="M328.75,464.23v3.41h4.01v1.08h-4.01v4.2h-1.32v-9.76h6.02v1.08H328.75z"/>
			<path id="XMLID_137_" class="st0" d="M342.42,464.26h-3.16v8.65h-1.32v-8.65h-3.17v-1.11h7.64V464.26z"/>
			<path id="XMLID_139_" class="st0" d="M357.19,463.15l-3.05,9.76h-1.19l-2.47-7.45c-0.02-0.07-0.04-0.15-0.06-0.23
				c-0.02-0.08-0.04-0.17-0.06-0.26c-0.02,0.09-0.05,0.18-0.07,0.26c-0.02,0.08-0.05,0.16-0.07,0.23l-2.49,7.45h-1.19l-3.04-9.76
				h1.1c0.12,0,0.22,0.03,0.3,0.09c0.08,0.06,0.13,0.13,0.15,0.22l2.02,6.79c0.03,0.12,0.06,0.25,0.09,0.4
				c0.03,0.14,0.06,0.29,0.09,0.45c0.03-0.16,0.06-0.31,0.1-0.45c0.03-0.14,0.07-0.27,0.11-0.39l2.3-6.79
				c0.03-0.08,0.08-0.15,0.16-0.21c0.08-0.07,0.18-0.1,0.29-0.1h0.38c0.12,0,0.21,0.03,0.29,0.09c0.07,0.06,0.13,0.13,0.16,0.22
				l2.29,6.79c0.04,0.12,0.08,0.25,0.11,0.38c0.03,0.14,0.07,0.28,0.1,0.43c0.02-0.15,0.05-0.29,0.08-0.43
				c0.03-0.14,0.06-0.26,0.09-0.38l2.02-6.79c0.02-0.08,0.07-0.15,0.15-0.22c0.08-0.06,0.18-0.1,0.29-0.1H357.19z"/>
			<path id="XMLID_141_" class="st0" d="M366.68,472.91h-1.02c-0.12,0-0.21-0.03-0.29-0.09c-0.07-0.06-0.13-0.13-0.16-0.23
				l-0.91-2.36h-4.38l-0.91,2.36c-0.03,0.08-0.08,0.15-0.16,0.22c-0.08,0.06-0.17,0.1-0.29,0.1h-1.02l3.9-9.76h1.33L366.68,472.91z
				 M363.93,469.29l-1.53-3.97c-0.05-0.12-0.09-0.26-0.14-0.41c-0.05-0.16-0.1-0.32-0.14-0.5c-0.1,0.37-0.19,0.67-0.29,0.92
				l-1.53,3.96H363.93z"/>
			<path id="XMLID_144_" class="st0" d="M375.87,472.91h-1.17c-0.24,0-0.42-0.09-0.53-0.28l-2.53-3.49
				c-0.08-0.11-0.16-0.19-0.25-0.23c-0.09-0.05-0.23-0.07-0.41-0.07h-1v4.07h-1.32v-9.76h2.76c0.62,0,1.15,0.06,1.6,0.19
				c0.45,0.12,0.82,0.31,1.11,0.54c0.29,0.24,0.51,0.52,0.65,0.86c0.14,0.33,0.21,0.71,0.21,1.12c0,0.35-0.05,0.67-0.16,0.97
				c-0.11,0.3-0.27,0.57-0.47,0.81c-0.21,0.24-0.46,0.44-0.76,0.61c-0.3,0.17-0.63,0.3-1.01,0.38c0.17,0.1,0.31,0.23,0.44,0.42
				L375.87,472.91z M371.36,467.88c0.38,0,0.72-0.05,1.01-0.14c0.29-0.09,0.54-0.23,0.74-0.39c0.2-0.17,0.35-0.37,0.45-0.61
				c0.1-0.24,0.15-0.5,0.15-0.78c0-0.58-0.19-1.02-0.57-1.31c-0.38-0.29-0.95-0.44-1.72-0.44h-1.44v3.69H371.36z"/>
			<path id="XMLID_147_" class="st0" d="M383.89,471.84l-0.01,1.08h-6.02v-9.76h6.02v1.08h-4.69v3.24h3.8v1.04h-3.8v3.33H383.89z"/>
			<path id="XMLID_149_" class="st0" d="M396.78,464.26h-3.16v8.65h-1.32v-8.65h-3.17v-1.11h7.64V464.26z"/>
			<path id="XMLID_151_" class="st0" d="M404.93,471.84l-0.01,1.08h-6.02v-9.76h6.02v1.08h-4.69v3.24h3.8v1.04h-3.8v3.33H404.93z"/>
			<path id="XMLID_153_" class="st0" d="M414.1,470.9c0.07,0,0.14,0.03,0.19,0.09l0.52,0.57c-0.4,0.46-0.88,0.82-1.45,1.08
				c-0.57,0.26-1.26,0.39-2.07,0.39c-0.7,0-1.33-0.12-1.91-0.36c-0.57-0.24-1.06-0.58-1.46-1.02c-0.4-0.44-0.72-0.96-0.94-1.58
				c-0.22-0.61-0.33-1.29-0.33-2.02c0-0.74,0.12-1.41,0.35-2.02c0.23-0.61,0.56-1.14,0.98-1.58c0.42-0.44,0.92-0.78,1.51-1.03
				c0.59-0.24,1.23-0.36,1.94-0.36c0.7,0,1.31,0.11,1.84,0.33c0.53,0.22,1,0.52,1.4,0.91l-0.44,0.61c-0.03,0.05-0.06,0.08-0.11,0.11
				c-0.04,0.03-0.1,0.04-0.17,0.04c-0.08,0-0.18-0.04-0.3-0.13c-0.12-0.09-0.27-0.19-0.46-0.3c-0.19-0.11-0.43-0.21-0.72-0.3
				c-0.29-0.09-0.64-0.13-1.06-0.13c-0.5,0-0.97,0.09-1.38,0.26s-0.78,0.43-1.08,0.76c-0.3,0.33-0.54,0.74-0.71,1.21
				c-0.17,0.48-0.25,1.02-0.25,1.61c0,0.61,0.09,1.15,0.26,1.63c0.17,0.48,0.41,0.88,0.72,1.21c0.3,0.33,0.66,0.58,1.07,0.75
				c0.41,0.17,0.86,0.26,1.33,0.26c0.29,0,0.55-0.02,0.79-0.05c0.23-0.03,0.45-0.09,0.65-0.16c0.2-0.07,0.38-0.16,0.55-0.28
				c0.17-0.11,0.34-0.24,0.51-0.4C413.95,470.93,414.03,470.9,414.1,470.9z"/>
			<path id="XMLID_157_" class="st0" d="M424.94,463.15v9.76h-1.32v-4.44h-5.27v4.44h-1.32v-9.76h1.32v4.35h5.27v-4.35H424.94z"/>
			<path id="XMLID_159_" class="st0" d="M436.03,463.15v9.76h-0.66c-0.1,0-0.19-0.02-0.26-0.05c-0.07-0.04-0.14-0.1-0.21-0.18
				l-5.65-7.36c0.01,0.11,0.02,0.22,0.02,0.33c0,0.11,0.01,0.21,0.01,0.31v6.96h-1.16v-9.76h0.68c0.06,0,0.11,0,0.15,0.01
				c0.04,0.01,0.08,0.02,0.11,0.03c0.03,0.02,0.06,0.04,0.1,0.07c0.03,0.03,0.07,0.07,0.1,0.11l5.65,7.35
				c-0.01-0.12-0.02-0.23-0.02-0.34c-0.01-0.11-0.01-0.22-0.01-0.32v-6.92H436.03z"/>
			<path id="XMLID_161_" class="st0" d="M448.22,468.04c0,0.73-0.12,1.4-0.35,2.01c-0.23,0.61-0.56,1.14-0.98,1.58
				c-0.42,0.44-0.93,0.78-1.52,1.03c-0.59,0.24-1.25,0.36-1.97,0.36s-1.37-0.12-1.96-0.36c-0.59-0.24-1.1-0.58-1.52-1.03
				c-0.42-0.44-0.75-0.97-0.98-1.58c-0.23-0.61-0.35-1.28-0.35-2.01c0-0.73,0.12-1.4,0.35-2.01c0.23-0.61,0.56-1.14,0.98-1.58
				c0.42-0.44,0.93-0.79,1.52-1.03c0.59-0.25,1.24-0.37,1.96-0.37s1.37,0.12,1.97,0.37c0.59,0.25,1.1,0.59,1.52,1.03
				c0.42,0.44,0.75,0.97,0.98,1.58C448.11,466.63,448.22,467.31,448.22,468.04z M446.87,468.04c0-0.6-0.08-1.14-0.25-1.61
				c-0.16-0.48-0.39-0.88-0.69-1.21c-0.3-0.33-0.66-0.58-1.09-0.76c-0.43-0.18-0.9-0.27-1.43-0.27c-0.52,0-1,0.09-1.42,0.27
				c-0.43,0.18-0.79,0.43-1.09,0.76c-0.3,0.33-0.54,0.73-0.7,1.21c-0.16,0.48-0.25,1.02-0.25,1.61c0,0.6,0.08,1.14,0.25,1.61
				c0.16,0.47,0.4,0.88,0.7,1.21c0.3,0.33,0.67,0.58,1.09,0.76c0.43,0.17,0.9,0.26,1.42,0.26c0.53,0,1-0.09,1.43-0.26
				c0.43-0.17,0.79-0.43,1.09-0.76c0.3-0.33,0.53-0.73,0.69-1.21C446.78,469.17,446.87,468.64,446.87,468.04z"/>
			<path id="XMLID_164_" class="st0" d="M456.33,471.8v1.11h-5.54v-9.76h1.31v8.65H456.33z"/>
			<path id="XMLID_166_" class="st0" d="M467.03,468.04c0,0.73-0.12,1.4-0.35,2.01c-0.23,0.61-0.56,1.14-0.98,1.58
				c-0.42,0.44-0.93,0.78-1.52,1.03c-0.59,0.24-1.25,0.36-1.97,0.36s-1.37-0.12-1.96-0.36c-0.59-0.24-1.1-0.58-1.52-1.03
				c-0.42-0.44-0.75-0.97-0.98-1.58c-0.23-0.61-0.35-1.28-0.35-2.01c0-0.73,0.12-1.4,0.35-2.01c0.23-0.61,0.56-1.14,0.98-1.58
				c0.42-0.44,0.93-0.79,1.52-1.03c0.59-0.25,1.24-0.37,1.96-0.37s1.37,0.12,1.97,0.37c0.59,0.25,1.1,0.59,1.52,1.03
				c0.42,0.44,0.75,0.97,0.98,1.58C466.92,466.63,467.03,467.31,467.03,468.04z M465.68,468.04c0-0.6-0.08-1.14-0.25-1.61
				c-0.16-0.48-0.39-0.88-0.69-1.21c-0.3-0.33-0.66-0.58-1.09-0.76c-0.43-0.18-0.9-0.27-1.43-0.27c-0.52,0-1,0.09-1.42,0.27
				c-0.43,0.18-0.79,0.43-1.09,0.76c-0.3,0.33-0.54,0.73-0.7,1.21c-0.16,0.48-0.25,1.02-0.25,1.61c0,0.6,0.08,1.14,0.25,1.61
				c0.16,0.47,0.4,0.88,0.7,1.21c0.3,0.33,0.67,0.58,1.09,0.76c0.43,0.17,0.9,0.26,1.42,0.26c0.53,0,1-0.09,1.43-0.26
				c0.43-0.17,0.79-0.43,1.09-0.76c0.3-0.33,0.53-0.73,0.69-1.21C465.59,469.17,465.68,468.64,465.68,468.04z"/>
			<path id="XMLID_169_" class="st0" d="M477.53,468.22v3.75c-0.49,0.35-1.01,0.62-1.57,0.79c-0.56,0.17-1.17,0.26-1.83,0.26
				c-0.79,0-1.49-0.12-2.13-0.36c-0.63-0.24-1.17-0.58-1.62-1.02c-0.45-0.44-0.79-0.96-1.03-1.58c-0.24-0.61-0.36-1.29-0.36-2.02
				c0-0.75,0.12-1.42,0.35-2.04c0.23-0.61,0.57-1.14,1-1.58c0.43-0.44,0.96-0.78,1.57-1.02c0.62-0.24,1.31-0.36,2.07-0.36
				c0.39,0,0.74,0.03,1.08,0.09c0.33,0.06,0.64,0.14,0.92,0.25c0.28,0.11,0.54,0.24,0.78,0.39c0.24,0.15,0.47,0.32,0.67,0.51
				l-0.37,0.6c-0.06,0.09-0.14,0.15-0.23,0.17c-0.09,0.03-0.2,0-0.31-0.06c-0.11-0.06-0.23-0.14-0.37-0.23
				c-0.14-0.09-0.31-0.18-0.51-0.26c-0.2-0.08-0.44-0.16-0.72-0.21c-0.27-0.06-0.6-0.09-0.98-0.09c-0.55,0-1.05,0.09-1.49,0.27
				c-0.45,0.18-0.82,0.44-1.14,0.77c-0.31,0.33-0.55,0.74-0.72,1.21c-0.17,0.47-0.25,1.01-0.25,1.6c0,0.61,0.09,1.16,0.26,1.65
				c0.17,0.48,0.42,0.89,0.75,1.23c0.32,0.34,0.72,0.6,1.18,0.77c0.46,0.18,0.98,0.27,1.56,0.27c0.45,0,0.86-0.05,1.21-0.15
				c0.35-0.1,0.7-0.24,1.03-0.43v-2.15h-1.52c-0.09,0-0.16-0.03-0.21-0.08c-0.05-0.05-0.08-0.11-0.08-0.18v-0.75H477.53z"/>
			<path id="XMLID_171_" class="st0" d="M483.68,469.02v3.89h-1.32v-3.89l-3.58-5.87h1.16c0.12,0,0.21,0.03,0.28,0.08
				c0.07,0.06,0.13,0.13,0.18,0.22l2.23,3.79c0.08,0.16,0.16,0.31,0.23,0.45c0.07,0.14,0.13,0.28,0.18,0.42
				c0.05-0.14,0.11-0.28,0.17-0.42c0.06-0.14,0.13-0.29,0.21-0.45l2.23-3.79c0.04-0.08,0.1-0.15,0.17-0.21
				c0.07-0.06,0.17-0.1,0.28-0.1h1.17L483.68,469.02z"/>
		</g>
		
			<ellipse id="XMLID_16_" transform="matrix(0.2305 -0.9731 0.9731 0.2305 -52.8834 671.0668)" class="st0" cx="397.87" cy="368.97" rx="7.84" ry="7.84"/>
		<rect id="XMLID_17_" x="399.33" y="366.88" class="st0" width="28.73" height="4.8"/>
	</g>
</g>
</svg>
