<?xml version="1.0" encoding="utf-8"?>
<!-- Generator: Adobe Illustrator 24.3.0, SVG Export Plug-In . SVG Version: 6.00 Build 0)  -->
<svg version="1.1" id="Layer_1" xmlns="http://www.w3.org/2000/svg" xmlns:xlink="http://www.w3.org/1999/xlink" x="0px" y="0px"
	 viewBox="0 0 499 500" style="enable-background:new 0 0 499 500;" xml:space="preserve">
<style type="text/css">
	.st0{fill:#07153A;stroke:#000000;stroke-width:0.75;stroke-miterlimit:10;}
	.st1{fill:#FFFFFF;stroke:#000000;stroke-width:0.75;stroke-miterlimit:10;}
</style>
<g id="Layer_1_1_">
	<rect x="-243.3" y="-325.6" class="st0" width="1081" height="1083.6"/>
	<path class="st1" d="M244.6,57.5c-64.4,0-117,14.7-152.1,26.4v228l-62.9,35.9c0-20.5,0-41.8,0-62.3c0-25.7,0-51.3,0-77
		c0-36.7,0-73.3,0-110c0-30.1-3.7-33.7,0-41.8c9.5-23.5,39.5-33,109-41.8c94.3-11,149.2-17.6,226.7,0c46.1,11,83.4,26.4,109,38.9
		v121.7l-43.2,16.1c-8.8,5.1-8.8,5.1-8.8,5.1v-110C423,88.3,319.9,57.5,244.6,57.5z"/>
	<polygon class="st1" points="128.3,123.5 128.3,318.5 33.9,373.5 256.3,497.4 473.5,378.6 473.5,204.2 313.3,276.7 314.8,341.3 
		414.3,289.2 414.3,344.2 256.3,432.2 141.5,365.5 183.9,348.6 183.9,204.2 249,251.1 311.9,211.5 313.3,248.1 371.9,218.1 
		371.9,123.5 254.1,191 	"/>
</g>
</svg>
