<?xml version="1.0" encoding="utf-8"?>
<!-- Generator: Adobe Illustrator 24.3.0, SVG Export Plug-In . SVG Version: 6.00 Build 0)  -->
<svg version="1.1" id="Capa_1" xmlns="http://www.w3.org/2000/svg" xmlns:xlink="http://www.w3.org/1999/xlink" x="0px" y="0px"
	 viewBox="0 0 477.9 477.9" style="enable-background:new 0 0 477.9 477.9;" xml:space="preserve">
<style type="text/css">
	.st0{fill:#FFFFFF;}
</style>
<g>
	<g>
		<path class="st0" d="M238.9,0C107,0,0,107,0,238.9s107,238.9,238.9,238.9s238.9-107,238.9-238.9C477.7,107,370.8,0.1,238.9,0z
			 M339.6,246.5c-1.7,3.3-4.3,6-7.7,7.7v0.1l-136.5,68.3c-8.4,4.2-18.7,0.8-22.9-7.6c-1.2-2.4-1.8-5-1.8-7.7V170.7
			c0-9.4,7.6-17.1,17.1-17.1c2.7,0,5.3,0.6,7.6,1.8l136.5,68.3C340.3,227.9,343.8,238.1,339.6,246.5z"/>
	</g>
</g>
</svg>
