<?xml version="1.0" encoding="utf-8"?>
<!-- Generator: Adobe Illustrator 24.3.0, SVG Export Plug-In . SVG Version: 6.00 Build 0)  -->
<svg version="1.1" id="Capa_1" xmlns="http://www.w3.org/2000/svg" xmlns:xlink="http://www.w3.org/1999/xlink" x="0px" y="0px"
	 viewBox="0 0 512 512" style="enable-background:new 0 0 512 512;" xml:space="preserve">
<style type="text/css">
	.st0{fill:#646C7F;}
</style>
<path class="st0" d="M508.6,246.4C462,189.8,363.5,123.6,256,123.6c-107.9,0-206.4,66.6-252.6,122.9c-4.6,5.6-4.6,13.5,0,19.1
	C51.1,323.6,149.8,388.4,256,388.4c110,0,208.1-68.6,252.6-122.9C513.1,260,513.1,252,508.6,246.4z M358.3,256
	c0,56.4-45.9,102.3-102.3,102.3c-56.4,0-102.3-45.9-102.3-102.3c0-56.4,45.9-102.3,102.3-102.3C312.4,153.7,358.3,199.6,358.3,256
	L358.3,256z M35.4,256c16.9-17.6,57.8-55.6,115.2-80c-36,47.3-36,112.7,0,160C106.9,317.5,66.4,288.3,35.4,256z M361.4,336
	c36-47.3,36-112.7,0-160c43.6,18.5,84.1,47.7,115.2,80C459.7,273.6,418.8,311.6,361.4,336z"/>
<path class="st0" d="M204.8,256c0,28.2,23,51.2,51.2,51.2c28.2,0,51.2-23,51.2-51.2s-23-51.2-51.2-51.2
	C227.8,204.8,204.8,227.8,204.8,256z M277.1,256c0,11.6-9.5,21.1-21.1,21.1c-11.6,0-21.1-9.5-21.1-21.1c0-11.6,9.5-21.1,21.1-21.1
	C267.6,234.9,277.1,244.4,277.1,256z"/>
<path class="st0" d="M256,65.3c8.3,0,15.1-6.7,15.1-15.1V15.1C271.1,6.7,264.3,0,256,0c-8.3,0-15.1,6.7-15.1,15.1v35.1
	C240.9,58.5,247.7,65.3,256,65.3z"/>
<path class="st0" d="M345.9,85.4c7.2,4.1,16.4,1.6,20.5-5.6l20-35.1c4.1-7.2,1.6-16.4-5.6-20.5c-7.2-4.1-16.4-1.6-20.5,5.6l-20,35.1
	C336.1,72.1,338.6,81.3,345.9,85.4z"/>
<path class="st0" d="M145.6,79.8c4.1,7.2,13.3,9.7,20.5,5.6c7.2-4.1,9.7-13.3,5.6-20.5l-20-35.1c-4.1-7.2-13.3-9.7-20.5-5.6
	c-7.2,4.1-9.7,13.3-5.6,20.5L145.6,79.8z"/>
<path class="st0" d="M256,446.7c-8.3,0-15.1,6.7-15.1,15.1v35.1c0,8.3,6.7,15.1,15.1,15.1c8.3,0,15.1-6.7,15.1-15.1v-35.1
	C271.1,453.5,264.3,446.7,256,446.7z"/>
<path class="st0" d="M166.1,426.6c-7.2-4.1-16.4-1.6-20.5,5.6l-20,35.1c-4.1,7.2-1.6,16.4,5.6,20.5c7.2,4.1,16.4,1.6,20.5-5.6
	l20-35.1C175.9,439.9,173.4,430.7,166.1,426.6z"/>
<path class="st0" d="M366.4,432.2c-4.1-7.2-13.3-9.7-20.5-5.6c-7.2,4.1-9.7,13.3-5.6,20.5l20,35.1c4.1,7.2,13.3,9.7,20.5,5.6
	c7.2-4.1,9.7-13.3,5.6-20.5L366.4,432.2z"/>
</svg>
