<svg id="Capa_1" data-name="Capa 1" xmlns="http://www.w3.org/2000/svg" viewBox="0 0 512.02 512"><defs><style>.cls-1{fill:#509407;}</style></defs><path class="cls-1" d="M508.6,246.4C462,189.8,363.5,123.6,256,123.6c-107.9,0-206.4,66.6-252.6,122.9a14.94,14.94,0,0,0,0,19.1c47.7,58,146.4,122.8,252.6,122.8,110,0,208.1-68.6,252.6-122.9A15.2,15.2,0,0,0,508.6,246.4ZM358.3,256A102.3,102.3,0,1,1,256,153.7,102.43,102.43,0,0,1,358.3,256ZM35.4,256c16.9-17.6,57.8-55.6,115.2-80a132,132,0,0,0,0,160C106.9,317.5,66.4,288.3,35.4,256Zm326,80a132,132,0,0,0,0-160c43.6,18.5,84.1,47.7,115.2,80C459.7,273.6,418.8,311.6,361.4,336Z" transform="translate(0.05)"/><path class="cls-1" d="M204.8,256A51.2,51.2,0,1,0,256,204.8,51.3,51.3,0,0,0,204.8,256Zm72.3,0A21.1,21.1,0,1,1,256,234.9,21.17,21.17,0,0,1,277.1,256Z" transform="translate(0.05)"/><path class="cls-1" d="M256,65.3a15.09,15.09,0,0,0,15.1-15.1V15.1a15.1,15.1,0,0,0-30.2,0V50.2A15.15,15.15,0,0,0,256,65.3Z" transform="translate(0.05)"/><path class="cls-1" d="M345.9,85.4a15,15,0,0,0,20.5-5.6l20-35.1a15,15,0,1,0-26.1-14.9l-20,35.1A14.87,14.87,0,0,0,345.9,85.4Z" transform="translate(0.05)"/><path class="cls-1" d="M145.6,79.8a15,15,0,0,0,26.1-14.9l-20-35.1a15,15,0,1,0-26.1,14.9Z" transform="translate(0.05)"/><path class="cls-1" d="M256,446.7a15.09,15.09,0,0,0-15.1,15.1v35.1a15.1,15.1,0,0,0,30.2,0V461.8A15.15,15.15,0,0,0,256,446.7Z" transform="translate(0.05)"/><path class="cls-1" d="M166.1,426.6a15,15,0,0,0-20.5,5.6l-20,35.1a15,15,0,1,0,26.1,14.9l20-35.1A14.87,14.87,0,0,0,166.1,426.6Z" transform="translate(0.05)"/><path class="cls-1" d="M366.4,432.2a15,15,0,0,0-26.1,14.9l20,35.1a15,15,0,0,0,26.1-14.9Z" transform="translate(0.05)"/></svg>